<svg xmlns="http://www.w3.org/2000/svg" version="1.1" width="600px" height="600px" viewBox="0 0 200 200" style="overflow:hidden!important;"><g id="svga-group-wrapper"><g id="svga-group-backs-single"></g><g id="svga-group-humanwrap-move" transform="matrix(1,0,0,1,0,0)"><g id="svga-group-humanwrap"><g id="svga-group-hair-back-move" transform="matrix(0.9986295346632303,0.05233595798588117,-0.05233595798588117,0.9986295346632303,7.464080651700328,-5.041730651440361)"><g id="svga-group-hair-back"><path id="SvgjsPath8899" d="M81.5 113.2c-.2-1.7-1.2-2.7-1.8-4.3-.8-2.2-.1-3.6.2-5.9.4-3.4-1.7-5.8-1.8-9 0-3.7 2.3-7.2 2.5-11 .2-3.6-.8-7.3-2.8-10.3-2.7-4-8.1-7.4-13-6.4-.8-.9-2.5-1.2-3.5-.3-2 1.7-2.9 3.9-2.5 6.6.4 2.6 1.1 3.4-.5 5.8-.6.9-1.6 1.6-2.2 2.5-.9 1.4-1.2 2.9-.6 4.3-1.5 1.5-2.8 3.1-4.4 4.5-1 1-1.9 1.7-2.2 3.2-.4 2.4 1.4 4.2-.1 6.6-.8 1.3-2.4 2.1-3.1 3.6-.6 1.2-.6 2.5-.3 3.8.6 2.5 1.8 3.6.3 6.3-.8 1.4-2.2 2.3-2.4 4.1-.2 2.1 2.1 4.8.7 6.7-.3.4.2 1 .7.8 3.7-1.2 2.2-4.1 2.8-7 .5-2.3 2.2-3 3.1-5.1.8-1.9 0-3.2-.3-5-.6-3.7 1.4-4.1 3-6.8.9-1.5.8-2.6.8-4.3 0-2.2-.1-2.5 1.3-4.2.5-.6 1.2-1.1 1.7-1.8.1-.2.2-.4.3-.5 0 .5 0 1 .1 1.3l-.5.5c-1.3 1.6-2.2 2.8-1.2 5 .2.5.6.8 1 1.1-.2 1-.8 1.7-1.9 2.2-1.3.8-1.8 2.8-.5 4 .2.2.4.3.5.5-.5.9-.7 1.8-.4 2.9-1 1-2.3 2-2.5 3.3-.2 1 .2 1.8.5 2.7.9 2.1 1.3 1.2 0 3.4-1.2 2-1.5 2.6-.7 4.8.7 1.7.8 2 .5 3.8-.2 1.2-.3 2 0 3.3.3 1.1 1.9.9 2-.3 0-.6.3-1.2.6-1.7.1 1.7 1 2.7 2.6 3.1.1 0 .3.1.4.1-.1 1.4.3 2.5 1.8 3.1.7.3 1.5-.7 1-1.3-.1-.2-.2-.4-.2-.6.1.1.2.1.2.2 1.4 1 2.8 1.1 3.9.7v.1c-.2.9.7 1.4 1.4 1.1 1 .7 2.2 1.1 3.2.9.4.4 1.2.3 1.6-.2.5-.8 1.8-1.1 2.5-1.9.3-.4.5-.9.7-1.4.4.9.9 1.6.9 1.6-1.1 1.6 1.4 3.5 2.7 2.1 1.2-1.3 1.5-2.3 1.1-4-.1-.6-.4-.9-.7-1.1.5-.2.9-.6 1.1-1.1.7-2.7 1.6-3.8 1.5-6.6-.2-3 1.3-5.6.9-8.5zm-23.6-1.6c-.1.4-.2.7-.4 1-.7-.9-1.2-.3-.1-1.2.1-.1.3-.2.4-.3 0 .1.1.3.1.5zm-1.3 9.7c0 .1-.1.2-.1.3v.1c-.1.3-.2.6-.3.8-.3-.8-.8-1.5-.8-2.2 0-.4.1-.8.3-1.1.8.7 1 1.4.9 2.1zm107.8 4.7c1.3.7-.9-7.1-.9-6.8.2-2.1 2.3-2.6.8-5-.9-1.4-2-1-2-2.7 0-.9 1.3-2.2 1.4-3.3.3-2.3-.7-3.8-2.5-5.2-1.9-1.4-2.9-.8-2.7-3.9.1-1.4.7-2.5.5-4-.4-3.2-2.6-3.8-4.9-5.3-1.4-.3-2.4-1.1-3.1-2.5.1-.7.1-1.4 0-2.1-.2-1.2-.7-2-1.6-2.7-3-2.4-6.9-.8-9.6-4.3-.2-.3-.6-.5-.9-.7-.7-2.9-2.4-5.3-5.2-6.8-3.6-1.9-10.9-1.8-14.4 1.3-1 .6-1.9 1.4-2.6 2.5-.7 1.1-.8 2-.9 3.2-.1 1.1.3 2.4-.2 3.4-.3.7-1.2 1.2-1.6 1.8-2 3.3.1 5.8.8 9 1.1 4.7-2.7 8.2-.8 13.1 1 2.7 1.5 4.9 1.3 7.8-.1 1-.1 1.8 0 2.5-.4.6-.6 1.2-.7 1.8-.1 1.1.5 1.9 1.1 2.8 1 1.8 2.9 1 2.1 4.5-.2.8-1.2 1.7-1.6 2.5-.5 1-.7 2-.6 3.2.1 1.3 2.5 4.2 1.5 5.3-1.3 1.5.3 3.4 2 2.6 1.6-.7 2.3-1.6 2.5-2.6.3.4.8.6 1.4.6h.1l.2.2c.8.8 1.8.4 2.2-.4.2.4.4.8.6 1.3.6 1.1 2.2.5 2.2-.6.1-.8.2-1.6.4-2.3.2.2.4.4.8.5l.7.3c.7.3 1.3-.1 1.6-.6.6.9 1.7 1.6 3 1.7.8.1 1.2-.9.9-1.5-.3-.7-.2-1.2.1-1.7.1.1.3.3.6.4.7.5 1.5-.1 1.7-.8.6 0 1.2-.1 2.2-.2.8-.1 1.2-.8 1.3-1.5.6.7 1.1 1.3.9 2-.2.8.9 1.6 1.4.8.9-1 1.1-1.8.8-3.1-.4-1.4-1.2-1.8-1.1-3.3 0-.4.3-.8.6-1.2.1.1.2.2.3.4 0 .1.5.2.6.1-.1.3-.6 1-.6 1.2 0 .4 1.1 5.4 2.4 3.4-.4.6 0 1.5.7 1.7.2.1.4.1.5.1.6.2 1.4-.1 1.7-.7l.3-.6c.4-.8.3-1.6-.3-2.2-.4-.4-1.2-1.4-1.3-1.2.1-.6.9-1.4.9-2.1-.1-1.8-1.4-2.1-2.4-2.7.9-1.2 1.8-2.5 2.7-3.7.7-1 .1-2.2-.7-2.8-.4-.3-4.8-2-4.8-1.9-.1-.3 2.2-3.4 2.3-4.2.4-2.5-1.1-4.2-3-5.3 1-1.4 1.7-2.9 1.7-4.6.7.5 2.6 1.5 2.4 1 .3.8-.6 2.3-.3 3.4.4 1.2 1.1 1.5 1.8 2.4 1 1.2 1.1.5 1.1 2.1 0 .6-.6 1.2-.8 1.7-.3 1.3-.3 2.4.3 3.6.5 1 2 1.6 2.2 2.5.2 1-1.1 2.6-1.1 3.7 0 .9.3 1.6.8 2.4.3.5 1.1.6 1.3 1 .7 1.2.2 1.8.4 2.8.2 1.3-.2 1.4.4 2.5.4.9 1.8.4 1.8-.5-.1-2.5 2.1-3.7 1.2-6.3-.5-1.5-1.5-1.5-1.2-3.6.2-1.1.9-2 .8-3.2-.1-.9-.6-1.5-1-2.3-.4-.9-.9-.7-.9-1.9 0-.3.9-1.8 1.1-2.3.3-1.1.4-2.3-.1-3.3-.5-1.3-2-1.6-2.5-2.7-.9-1.7.8-3.6-1-5.4-.8-.9-2.4-1-3-1.9-.6-1-.2-2.7-.7-3.9-.5-1.2-1.5-1.9-2.6-2.6-2-1.3-2.1-1.4-2.6-3.8l-.3-.9c.8.1 1.6.2 2.1.6 1.3.9.7 2 1.3 3.6.5 1.5 1.5 2.4 2.9 3.2 2.4 1.4 4.8 1 4.6 4.6-.1 3-.9 5.3 1.8 7.5 1.1.9 3.4 1.3 3.6 2.9.1.9-1.5 2.7-1.5 4 0 1.1.2 2.3 1.1 3.2 1.4 1.4 1.6.4 1.7 2.3.1 1.1-.8 1.7-.4 2.9.5 1.3 1.3 1.5 1.6 2.8.5 2.2-.6 3.9 2 4.7 1.3.8 2-1.1.9-1.7zm-24.5 1.6c-.2-.2-.3-.4-.5-.7-.2-.5-.4-.7-.5-.8.1 0 .3-.1.4-.7.1-.5.6-.8.9-1.3.3.2.5.4.6.7.3.3-.6 1.7-.9 2.8zm5-7.8-1.2 1.7-.1-.1c-1.2-1.5-1.4-.5-1-2.1.8.1 1.6.3 2.3.5zm-1.6-23.1c-1.1-1.1-2.2-1.7-3-2.5v-.7c.1.1.2.2.4.3 1.9 1.3 2.2 1.3 2.6 2.9z" fill="#000000" stroke-width="none" opacity="1"></path></g></g><g id="svga-group-humanbody-back"><path id="SvgjsPath3435" d="M86.5 107c0 18.8 2.7 50.3-8.1 58s-31.8 13.9-36.7 24.4-3.6 29.4-3.6 29.4h124.1s.6-23.1-4.2-30.4c-6.6-10.1-28.5-17.7-36.5-22.9-8.1-5.2-10.9-32.2-10.9-58.8l-24.1.3z" fill="#ffffff" stroke-width="none" opacity="1"></path></g><g id="svga-group-chinshadow-single"></g><g id="svga-group-humanbody-front"><path id="SvgjsPath3436" d="M163.4 220.1H37.2l-.3-.9c-.1-.5-1.3-19.7 3.6-30.3 3.4-7.3 13.6-12.4 23.5-17.4 5.1-2.5 9.9-5 13.6-7.5 8.6-6 8.1-29.8 7.7-47.1-.1-3.5-.1-6.8-.1-9.8v-1.3l26.7-.4v1.3c0 32 3.8 53.5 10.3 57.7 2.4 1.6 6 3.3 10.2 5.4 9.7 4.7 21.9 10.6 26.7 18 5 7.6 4.4 30.9 4.4 31.2l-.1 1.1zm-124.1-2.6h121.6c-.1-2.4-.6-23.2-4-28.4-4.4-6.7-16.2-12.5-25.6-17-4.3-2.1-8-3.9-10.5-5.5-9.8-6.3-11.4-38.8-11.5-58.6l-21.5.4c0 2.6.1 5.5.1 8.5.4 18.9.9 42.4-8.8 49.3-3.8 2.7-8.7 5.1-13.9 7.7-9.5 4.8-19.4 9.7-22.3 16.1-3.3 6.9-3.7 25.9-3.6 27.5z" fill="#000000" stroke-width="none" opacity="1"></path><path id="SvgjsPath3437" d="M76.8 173.7c4.8 2.3 10.4 3.9 15.7 2.9.4-.1.4-.7 0-.8-5.1-.9-10.2-1.4-15.2-3.2-.6-.2-1.1.8-.5 1.1zm31.5 2.4c2.4.3 4.9-.4 7.1-1.2 2.1-.8 4.3-1.7 5.8-3.4.5-.5-.1-1.2-.7-.9-2.1.9-3.9 2.3-6.1 3-2 .7-4.1 1-6.2 1.5-.6.1-.4.9.1 1z" fill="#000000" stroke-width="none" opacity="1"></path></g><g id="svga-group-clothes-single"><path id="SvgjsPath9778" d="M37.25 220.12h126.2s.51-16.94.41-20.02c-.07-2.27-.48-5.16-1.67-8.35-2.81-7.49-5.38-8.9-6.79-10.3-1.4-1.4-26.22-14.98-26.22-14.98s1.17-5.38-3.04-8.19c0 0 1.78-3.54-1.5-7.28-3.28-3.75-1.09-7.53-1.09-7.53s-1.82-8.25-6.27-6.61-29.07 2.22-31.88 1.05c-2.81-1.17-6.96-.71-7.43 1.63-.47 2.34.17 5.16.17 5.16s-3.04 1.4-3.04 5.15 1.64 7.02.47 7.49-2.58 0-3.04 2.58 0 4.92 0 4.92-5.62 4.21-9.6 5.85-15.69 6.79-19.43 11.24c-3.24 3.85-7.6 11.07-6.93 19.31.09 1.26.32 17.56.68 18.88z" fill="#ffffff" stroke-width="none" opacity="1"></path><path id="SvgjsPath9779" d="M163.08 191.38c-2.47-6.6-4.81-8.67-6.35-10.04-.25-.22-.47-.42-.67-.61-1.37-1.37-20.56-11.93-25.84-14.82.17-1.62.2-5.46-2.94-8.01.41-1.41.81-4.44-1.94-7.58-2.74-3.14-1.04-6.24-.97-6.37.13-.22.17-.47.11-.72-.12-.56-1.3-5.52-4.22-7.11-1.05-.57-2.22-.65-3.38-.22-4.28 1.58-28.64 2.11-31.15 1.06-2.28-.95-5.13-.93-6.95.03-1.01.54-1.65 1.34-1.85 2.32-.36 1.8-.13 3.81.04 4.86-1.05.72-2.93 2.46-2.93 5.65 0 1.73.32 3.34.59 4.64.14.68.32 1.59.31 2-.14.04-.3.07-.47.11-1 .2-2.51.51-2.99 3.15-.35 1.93-.21 3.73-.1 4.65-1.43 1.04-5.74 4.08-8.9 5.38-3.63 1.5-15.8 6.75-19.81 11.52-2.03 2.41-7.87 10.24-7.18 19.84.1 1.39.34 17.82.74 19.27.12.43.51.73.96.73h126.2c.45 0 .85-.31.97-.75.02-.07.15-.57.26-1.42.32-2.26.55-21.96-1.54-27.56zm-.53 5.92c-5.09-2.31-9.54-5.06-13.31-9.27.86-1.05 1.69-1.99 2.45-2.79 2.77 2.98 6.07 5.71 9.74 7.5.56 1.62.91 3.16 1.12 4.56zm-7.15-14.47c1.39 1.23 3.48 3.1 5.76 9.13-3.3-2.07-6.38-4.26-9.18-7.03 1.27-1.32 2.29-2.23 2.8-2.67.19.19.39.37.62.57zm-31.57-31.2c2.77 3.16 1.41 6.06 1.36 6.17-.23.45-.08 1 .34 1.28 3.58 2.39 2.66 6.96 2.62 7.15-.02.09-.02.18-.01.27-.04.1-.33.67-1.94 1.56.39-2.22.06-4.39-1.19-6.41-.36-.59-.9-1.06-1.25-1.64-1.35-2.22-1.12-3.5-1.14-5.87-.01-1.1.13-1.66-.38-2.71-1.01-2.1-1.74-1.11-2.01-4.05-.04-.44-.04-.85-.02-1.25.63-.2 1.17-.39 1.62-.55-.18 1.75.18 3.97 2 6.05zm-.58 12.28c-1.34-2.85-3.94-3.94-4.91-7.31-.59-2.08-.32-4.37-.8-6.49-.25-1.11-.82-1.92-1.22-2.87.78-.2 1.49-.4 2.15-.59.01.37.07.77.19 1.18.55 1.9 2.2 2.66 2.87 4.58.7 2.02-.15 3.83.46 5.81.27.87.89 1.42 1.39 2.15 1.78 2.59 2.72 4.9 2.32 7.95-.55.28-1.23.58-2.06.91.49-1.74.45-3.53-.39-5.32zm-4.58-.63c-.56-1.34-1.52-2.37-2.14-3.66-1.37-2.86-.47-4.04-1.23-6.57-.39-1.29-1.38-2.09-1.92-3.26-.3-.65-.47-1.22-.57-1.76 1.06-.21 2.05-.44 2.97-.67 2.16 3.3.93 7.13 2.43 10.73 1.85 4.44 6.35 5.95 4.79 11.37-1.03.38-2.26.79-3.74 1.22.52-2.48.43-4.94-.59-7.4zm-11.18-4.78c-2.77.07-5.97.19-9.03.44.01-.06.01-.12-.02-.18-1.63-3.09-1.76-6.29-.23-9.38.42.01.84.02 1.27.02.3 0 .6 0 .91-.01 2.15-.03 4.2-.18 6.15-.39.53 3.12.9 6.26.95 9.5zm-.39-9.55c1.8-.21 3.49-.48 5.06-.78.04.26.1.52.18.77.31.88.87 1.39 1.28 2.17.92 1.76 1.05 2.9 1.3 4.85.13 1.01.28 1.8.56 2.62a.933.933 0 0 0-.44-.12c-.06 0-3.03-.05-7.03.04-.03-3.24-.37-6.41-.91-9.55zm-10.03 1.36c-.79 3.14-.82 5.79.86 8.67-.69.06-1.37.12-2.04.2-1.2.13-2.49.16-3.81.11-.06-.94-.16-1.88-.13-2.87.09-2.47 1.56-4.84 1.78-7.27 1.12.1 2.29.17 3.5.22-.02.31-.08.62-.16.94zm-5.17 1.85c-.3 1.22-.67 1.68-.7 2.99-.03 1.38.65 2.77.67 4.14-1.15-.05-2.33-.15-3.49-.28-1.92-2.87-1.28-7.27-.2-10.61 1.36.25 2.84.47 4.43.64-.19 1.08-.49 2.19-.71 3.12zm-4.44 6.73c-.86-.12-1.71-.25-2.53-.39-2.48-3.63-2.78-7.07-1.26-11.09 1.19.31 2.53.62 4.02.9-1.12 3.16-1.86 7.73-.23 10.58zm-3.54-.58a81.07 81.07 0 0 1-3.14-.65c-.94-1.82-1.72-3.54-1.68-5.74.04-1.97.69-3.71 1.64-5.34.67.21 1.43.44 2.3.67-1.85 3.38-1.43 7.97.88 11.06zm-.56 1.94c-1.95 3.3-1.98 7.78.74 10.67-1.3-.36-2.52-.76-3.64-1.19-2.57-3.28-2.9-6.83-.67-10.24 1.07.25 2.28.52 3.57.76zm.56.11c1.28.23 2.63.44 4.01.61-1.34 3.49-.92 8.05 1.28 11.12-1.49-.28-2.93-.6-4.29-.95-.01-.02 0-.04-.01-.06-2.31-3.55-3.01-7.13-.99-10.72zm4.54.67c1.04.11 2.08.2 3.12.25-.28 1.06-.67 2.11-.78 3.16-.1.91-.15 1.81-.02 2.72.33 2.33 1.54 4.21 3.26 5.64-1.35-.15-2.68-.34-3.97-.56-2.11-3.72-2.76-7.04-1.61-11.21zm3.52 1c.04-.25.08-.5.1-.74.37.01.74.02 1.11.02 1 0 1.99-.05 2.92-.15.73-.08 1.48-.15 2.23-.21-1.18 4.07-.38 9.13 2.55 12.3-2.02-.04-4.03-.16-6-.36-3.62-3.03-3.71-6.35-2.91-10.86zm6.81-1.11c3.12-.25 6.38-.37 9.16-.43 2.04 3.99 2.21 8.3.68 12.44-2.21.24-4.47.35-6.75.34-2.89-3.63-4.32-7.64-3.09-12.35zm9.63-.44c3.77-.07 6.53-.03 6.59-.03.46 0 .84-.31.96-.74.03.07.05.12.09.19 2.05 3.81 3.48 6.75 2.68 10.94-1.4.39-3 .8-4.84 1.22-1.48.34-3.02.6-4.59.79 1.51-4.05 1.15-8.53-.89-12.37zm9.15-22.7c.63-.23 1.18-.2 1.73.09 1.63.89 2.7 3.83 3.11 5.34-.3.12-.99.38-1.98.72.03-.42.05-.85.02-1.3-.15-2.14-1.33-3.74-3.04-4.8.05-.02.11-.04.16-.05zm-.8.23c3.96 2.55 2.82 4.26 2.1 6.43-.85.26-1.85.55-2.95.83.02-.6.16-1.12.1-1.96-.17-2.14-.77-3.64-2.42-4.77 1.29-.16 2.37-.34 3.17-.53zm-3.72.59c2.45 1.84 3.03 4.15 1.75 6.94-.66.16-1.36.32-2.09.47.07-1.11.25-2.18-.02-3.54-.34-1.66-.99-2.63-2.54-3.24-.19-.08-.32.24-.14.33 2.74 1.43 2.23 4.08 2.09 6.57-1.65.33-3.45.62-5.37.84-.51-2.59-1.13-5.16-1.8-7.74 3-.15 5.84-.36 8.12-.63zm-8.54.66c.55 2.62 1.12 5.2 1.63 7.78-1.84.2-3.78.33-5.8.36-.78.01-1.54 0-2.28-.02-1.11-2.43-1.19-4.99-.49-7.64.04-.16-.19-.22-.24-.07-.92 2.74-.18 5.18-.03 7.68-1.3-.05-2.54-.13-3.73-.24-.7-2.48-2.85-4.75-.44-7.29.18-.19-.08-.43-.28-.28-1.52 1.23-1.56 2.61-1.15 4.49.19.84.73 1.57.92 2.4.04.19.07.39.08.59a61.42 61.42 0 0 1-4.54-.67c-.32-1-.59-1.97-.58-3.09.01-1.43.4-2.66.91-3.93 3.94.27 10.23.21 16.02-.07zm-19.55-.45c.51.21 1.55.37 2.96.49-1.03 2.03-1.23 4.77-.43 6.93-1.32-.26-2.5-.54-3.56-.82-.91-2.3-.88-4.46.29-6.85.26.07.51.15.74.25zm-1.21-.37c-1.25 1.91-1.54 4.55-.72 6.72-.43-.12-.83-.24-1.21-.35-1.21-2.09-1.32-4.5-.15-6.53.68-.04 1.39.01 2.08.16zm-4.85 1.27c.08-.38.35-.7.82-.95.38-.2.85-.33 1.36-.41-1.05 1.9-1.15 4.27-.11 6.2-.56-.18-1.05-.34-1.44-.47-.23-.08-.41-.14-.58-.19-.14-.9-.36-2.67-.05-4.18zm-.67 6.04c.19.06.42.14.67.22.35.12.76.26 1.24.41-2.06 3.2-2.43 7.77-.44 11.02-1.15-.28-2.1-.53-2.78-.72.05-.73-.13-1.64-.33-2.62-.24-1.21-.55-2.71-.55-4.24.01-2.45 1.55-3.67 2.19-4.07zm.82 13.56c-2.11 2.87-2.11 7.1.1 9.88-.96-.42-1.82-.86-2.57-1.32-2.22-2.79-2.45-6.09-.7-9.41.66.2 1.76.51 3.17.85zm-5.59.76c.24-1.31.58-1.38 1.42-1.55.12-.02.25-.05.38-.08-1.72 2.51-1.7 5.82-.22 8.34-.83-.71-1.38-1.46-1.59-2.21-.05-.25-.4-2.29.01-4.5zM45.34 181.4c.25.26.61.64 1.06 1.11l-1.38-.81c.09-.1.21-.2.32-.3zm-1.13 1.14c.15-.17.31-.35.48-.53.96.6 1.91 1.2 2.88 1.78 1.36 1.5 3.11 3.51 4.92 5.81-3.45-1.43-6.65-3.02-9.72-5.2.57-.78 1.07-1.42 1.44-1.86zm-1.72 2.27c3.08 2.49 6.71 4.54 10.56 5.52 1.57 2.03 3.15 4.24 4.53 6.5-6.09-2.35-11.72-4.92-17.01-8.8-.01-.01-.03 0-.04-.01.66-1.23 1.34-2.31 1.96-3.21zm-4.51 34.29c-.04-.16-.07-.64-.1-1.34.66.48 1.37.94 2.11 1.34h-2.01zm3.1 0c-1.08-.53-2.16-1.07-3.22-1.67-.03-.81-.06-1.85-.09-3.02 2.59 2 5.66 3.62 8.83 4.68h-5.52zm14.32 0c-5.83-2.71-11.75-4.76-17.12-8.41-.12-.08-.22.1-.11.19 4.8 3.68 10.59 6.39 16.38 8.22h-6.12c-3.69-1.47-7.37-2.66-10.67-5-.06-2.31-.1-5.05-.14-7.44 6.25 5.19 14.96 8.91 22.76 11.02.14.04.19-.16.06-.22-7.77-3.24-15.97-5.98-22.79-11.07-.01-.01-.02 0-.03-.01-.02-1.24-.04-2.37-.05-3.28 6.05 5.17 14.45 8.64 21.93 10.87.15.05.2-.17.06-.23-7.56-3.1-15.5-5.94-22-11.02-.02-.94-.03-1.6-.04-1.78-.03-.44-.04-.87-.05-1.3 1.64 1.72 3.74 3.13 6.04 3.61.27.06.36-.3.11-.4-2.37-.97-4.41-2.08-6.15-3.85.03-1.2.16-2.37.38-3.5 3.57 3.83 8.16 6.8 13.29 8.01.28.06.38-.33.12-.42-5.13-1.79-9.54-4.31-13.3-8.16.2-.92.45-1.8.74-2.65 6.38 4.88 13.56 8.95 21.37 10.96.25.06.33-.29.1-.38-7.65-2.89-14.75-6.2-21.33-11.03.45-1.25.97-2.4 1.51-3.45 5.01 4.03 10.91 7.38 17.24 8.75.08.02.13-.02.16-.07 1.32 2.18 2.44 4.38 3.19 6.48.02.05.04 1.26.05 2.98-2.15-.89-4.48-1.46-6.66-2.26-.21-.08-.29.25-.09.33 2.15.86 4.45 1.9 6.75 2.35l.03 2.93c-4.4-1.55-8.81-2.96-13.11-4.79-.12-.05-.23.12-.11.18 4.21 2 8.65 3.81 13.22 4.81.03 4.2.07 8.9.1 9H55.4zm83.76 0H63.21c-.07-.25-.15-15.5-.23-15.75-3.12-9.45-13.53-20.59-16.08-23.22 5.23-3.87 14.28-7.69 16.35-8.55 3.08-1.27 7.01-3.95 8.82-5.25 3.2 5.18 16.88 8.92 30.05 8.92 4.25 0 8.45-.39 12.21-1.25 8.61-1.96 13.74-4.02 15.29-6.15 7.93 4.35 19.27 10.67 23.44 13.23-2.68 2.34-11.04 10.41-13.66 21.78-.07.42-.16 15.83-.24 16.24zm8.73 0c-1.92-.95-3.86-1.81-5.69-2.98-.15-.09-.28.14-.13.23 1.53 1.01 3.17 2.03 4.89 2.75h-5.76c.03-.17.08-3.22.12-6.62 3.26 2.47 6.77 4.87 10.51 6.62h-3.94zm14.78-15.63c-.01.08-.02 1.77-.03 4.02-2.35-1.1-4.72-2.1-7.01-3.34-.14-.08-.25.12-.12.21 2.17 1.43 4.61 2.75 7.13 3.5l-.03 6.57c-3.77-1.52-7.54-2.96-11.16-4.85-.11-.06-.21.11-.1.17 3.55 2.01 7.3 3.84 11.26 4.89-.01 2.47-.02 4.4-.03 4.46h-.72c.12-.05.18-.24.04-.3-7.31-3.11-13.75-7.15-20.3-11.61-.12-.08-.22.11-.11.19 6.19 4.6 12.75 9.5 20.24 11.72h-8.82c-3.92-2.23-7.86-4.32-11.58-6.91.05-4.29.1-9.02.13-9.22.01-.07.02-.13.04-.2 2.16 2.06 4.51 3.94 7.13 5.37.05.03.1-.05.05-.08-2.53-1.64-4.94-3.4-7.14-5.47.17-.98.47-1.94.81-2.83 3.53 3.35 7.71 6.17 11.95 8.49.06.03.12-.06.06-.1-4.19-2.66-8.01-5.66-11.86-8.76.43-1.06.89-1.98 1.18-2.59 2.88 2.91 6.26 5.46 10.06 7 .19.08.32-.24.14-.33-3.65-2.03-7.01-4.22-9.98-7.13a41.38 41.38 0 0 1 2.25-4.01c4.39 4.95 10.21 8.85 16.6 10.64-.05.17-.06.34-.08.5zm.09-.99c-6.29-2.45-11.64-5.71-16.42-10.49.86-1.32 1.75-2.53 2.61-3.61 3.57 4.25 8.3 7.88 13.67 9.45.24 1.87.23 3.46.14 4.65z" fill="#000000" stroke-width="none" opacity="1"></path></g><g id="svga-group-head" transform="matrix(0.9986295346632303,0.05233595798588117,-0.05233595798588117,0.9986295346632303,7.464080651700328,-5.041730651440361)"><g id="svga-group-ears-left-move" transform="matrix(1,0,0,1,0,0)"><g id="svga-group-ears-left"><path id="SvgjsPath4957" d="M63.9 77.8s-2.5-2.4-5.4-3.5c-2.9-1.1-6.1.7-7.1 3.7-1 2.9 1.3 15.1 5 19.5s6.2 4.8 8.7 2.5c2.6-2.4 7-10.8-1.2-22.2z" fill="#ffffff" stroke-width="none" opacity="1"></path><path id="SvgjsPath4958" d="M61.8 102.3c-1.9-.1-3.8-1.5-6.1-4.2-3.9-4.7-6.3-17.1-5.2-20.5.6-1.8 1.9-3.3 3.6-4.1 1.5-.7 3.2-.8 4.8-.2 3.1 1.2 5.6 3.6 5.7 3.7l.1.1c8.7 12.2 3.5 21.2 1.1 23.5-1.2 1.1-2.4 1.6-3.7 1.6-.1.1-.2.1-.3.1zm-3.6-27.1c-1.3-.5-2.5-.2-3.2.1-1.2.6-2.1 1.6-2.6 2.9-.8 2.5 1.3 14.3 4.9 18.5 1.9 2.3 3.4 3.4 4.7 3.5.8.1 1.6-.3 2.5-1.1 2.1-1.9 6.5-9.8-1.3-20.7-.4-.3-2.6-2.2-5-3.2z" fill="#000000" stroke-width="none" opacity="1"></path><path id="SvgjsPath4959" d="M55.2 77.4c3.3.6 5.4 6.1 6 9.8.1.1.1.2.2.3.4.6-.4 1.2-.8.6-.5-.8-1-1.6-1.8-1.9-1.4-.5-2.1 1.1-1.8 2.6.4 1.9 1.6 3 2.6 4.4.1.1 0 .3-.1.2-1.7-1-4.3-4.8-3.1-7.2.9-1.7 2.3-1.4 3.4-.4-.8-2.1-1.4-4.3-3-5.9-.5-.5-1.5-1.4-2.2-1.3-1.3.2-1.3 2.1-1.3 3.4-.1 1.7.1 3.4.4 5 0 .2-.2.2-.3.1-.6-2.4-2-10.4 1.8-9.7z" fill="#000000" stroke-width="none" opacity="1"></path></g></g><g id="svga-group-ears-right-move" transform="matrix(1,0,0,1,0,0)"><g id="svga-group-ears-right"><path id="SvgjsPath4960" d="M136.1 77.8s2.5-2.4 5.4-3.5c2.9-1.1 6.1.7 7.1 3.7 1 2.9-1.3 15.1-5 19.5s-6.2 4.8-8.7 2.5c-2.6-2.4-7-10.8 1.2-22.2z" fill="#ffffff" stroke-width="none" opacity="1"></path><path id="SvgjsPath4961" d="M137.9 102.3c-1.3 0-2.5-.5-3.7-1.6-2.5-2.2-7.6-11.3 1.1-23.5l.1-.1c.1-.1 2.7-2.5 5.7-3.7 1.5-.6 3.2-.5 4.8.2 1.7.8 3 2.3 3.6 4.1 1.1 3.3-1.3 15.8-5.2 20.5-2.3 2.7-4.2 4.1-6.1 4.2-.1-.1-.2-.1-.3-.1zm-1.1-23.9c-7.8 10.9-3.4 18.8-1.3 20.7.9.8 1.7 1.2 2.5 1.1 1.3-.1 2.8-1.2 4.7-3.5 3.5-4.2 5.7-16.1 4.9-18.5-.4-1.3-1.4-2.4-2.6-2.9-.7-.3-1.9-.6-3.2-.1-2.4 1-4.6 2.9-5 3.2z" fill="#000000" stroke-width="none" opacity="1"></path><path id="SvgjsPath4962" d="M144.8 77.4c-3.3.6-5.4 6.1-6 9.8-.1.1-.1.2-.2.3-.4.6.4 1.2.8.6.5-.8 1-1.6 1.8-1.9 1.4-.5 2.1 1.1 1.8 2.6-.4 1.9-1.6 3-2.6 4.4-.1.1 0 .3.1.2 1.7-1 4.3-4.8 3.1-7.2-.9-1.7-2.3-1.4-3.4-.4.8-2.1 1.4-4.3 3-5.9.5-.5 1.5-1.4 2.2-1.3 1.3.2 1.3 2.1 1.3 3.4.1 1.7-.1 3.4-.4 5 0 .2.2.2.3.1.6-2.4 2-10.4-1.8-9.7z" fill="#000000" stroke-width="none" opacity="1"></path></g></g><g id="svga-group-faceshape-wrap"><g id="svga-group-faceshape-single"><path id="SvgjsPath3842" d="M138.2 58.2c-2-10.8-13.3-27.4-37.2-27.4S69.1 43.5 65.5 53c-3 8.1-3 21.3-3 21.3s.4 28.4 10 46.1c9.3 17 28.9 31.8 46.2 11.8 21.5-24.8 20.6-57.8 20.6-57.8s.3-8.5-1.1-16.2z" fill="#ffffff" stroke-width="none" opacity="1"></path><path id="SvgjsPath3843" d="M100.7 143.1c-.8 0-1.5 0-2.3-.1-11.8-1.3-21.7-12.2-27-22-9.6-17.7-10.2-45.5-10.2-46.7 0-.6 0-13.6 3.1-21.8 5.8-15.5 17.8-23 36.7-23 10.9 0 20.5 3.4 27.7 10 5.5 5 9.6 11.9 10.8 18.5 1.4 7.6 1.2 15.7 1.2 16.4s.1 8.8-2.3 19.9c-2.3 10.5-7.4 25.8-18.7 38.8-5.8 6.6-12.2 10-19 10zm.3-111c-17.7 0-28.9 7-34.3 21.3-2.9 7.8-2.9 20.8-2.9 20.9 0 .3.5 28.3 9.9 45.5 5 9.2 14.2 19.5 25 20.6 6.8.7 13.3-2.3 19.1-9.1 20.9-24.1 20.3-56.6 20.3-57 0-.1.2-8.4-1.2-15.9-1.1-6-4.8-12.4-10-17-6.6-6.1-15.6-9.3-25.9-9.3z" fill="#000000" stroke-width="none" opacity="1"></path></g></g><g id="svga-group-mouth-single-move" transform="matrix(1,0,0,1,0,0)"><g id="svga-group-mouth-single"><path id="SvgjsPath4653" d="M113.77 117.76c-.37.06-.74.14-1.11.21-2.95-1-5.96-1.67-9.06-2.03-.11-.01-.16.04-.2.12-1.14.59-2.28 1.18-3.43 1.78-1.21-.44-2.36-1-3.45-1.67-.12-.08-.24-.02-.3.07l-8.19 2.31c-.03.01-.03.03-.05.04-.44-.04-.88-.09-1.32-.12-.63-.04-.63.94 0 .98.52.03 1.03.08 1.55.14 3.7 3.09 7.35 7.51 12.61 7.33 5.19-.18 8.91-4.27 12.02-7.98.4-.08.79-.15 1.19-.22.62-.13.36-1.07-.26-.96zm-17.32-1.09c1.09.65 2.23 1.2 3.42 1.64.03.01.04-.01.07 0 .06.03.13.03.21-.01 1.19-.62 2.38-1.24 3.58-1.85 2.71.32 5.35.9 7.94 1.72-3.46.71-6.98 1.58-10.47 1.8-4.03.25-8-.73-11.99-1.25 2.41-.69 4.83-1.37 7.24-2.05zm4.37 9.75c-4.89.13-8.3-3.75-11.73-6.74 4.11.52 8.2 1.56 12.35 1.25 3.56-.27 7.12-1.14 10.64-1.85-2.92 3.46-6.46 7.21-11.26 7.34z" fill="#000000" stroke-width="none" opacity="1"></path></g></g><g id="svga-group-eyes-left-move" transform="matrix(1,0,0,1,1,0)"><g id="svga-group-eyes-left"><g id="svga-group-eyesback-left"></g><g id="svga-group-eyesiriswrapper-left"><g id="svga-group-eyesiriscontrol-left" transform="matrix(1,0,0,1,0,0)"><g id="svga-group-eyesiris-left"><path id="SvgjsPath6274" d="M81 82.8c2.2 0 3.9 1.7 3.9 3.9s-1.8 3.9-3.9 3.9-4-1.8-4-3.9 1.8-3.9 4-3.9z" fill="#000000" stroke-width="none" opacity="1"></path><path id="SvgjsPath6275" d="M77.6 84.6c-.4.9-.4 2-.1 2.9.3.9.8 1.7 1.6 2.1s1.8.5 2.6.3c.9-.2 1.6-.7 2.1-1.5.4-.8.6-1.7.4-2.6-.1-.4-.3-.8-.5-1.2-.3-.3-.6-.7-1-.9-.4-.2-.8-.4-1.3-.5-.4-.1-.9-.1-1.4-.1-.1 0-.2 0-.4.1-.1 0-.2.1-.3.1l-.6.3c-.5.3-.8.7-1.1 1 .2-.4.5-.8.9-1.2.2-.2.4-.3.7-.4.1-.1.2-.1.4-.1s.2-.1.4-.1c.5-.1 1.1-.2 1.6-.1s1 .2 1.5.5c.5.2 1 .6 1.3 1 .4.4.6 1 .8 1.5.3 1.1.1 2.3-.5 3.3-.3.5-.7.9-1.2 1.2s-1 .6-1.6.7c-1.1.2-2.3.1-3.2-.6-.5-.3-.9-.7-1.2-1.2-.3-.5-.5-1-.6-1.5-.1-1 .1-2.1.7-3z" fill="#ffffff" stroke-width="none" opacity="1"></path><path id="SvgjsPath6276" d="M81 91.1c-.9 0-1.7-.2-2.4-.7-.5-.3-.9-.7-1.2-1.2-.3-.5-.5-1-.6-1.6-.2-1.1.1-2.2.6-3.1.2-.3.4-.6.6-.8l.2-.2v.1l.2-.2c.2-.2.4-.3.7-.5.1-.1.2-.1.4-.2.1 0 .3-.1.4-.1.6-.2 1.1-.2 1.7-.1.6.1 1.1.2 1.6.5s1 .6 1.4 1.1c.4.4.6 1 .8 1.6.3 1.1.1 2.4-.5 3.4-.3.5-.7 1-1.2 1.3-.5.3-1 .6-1.6.7H81zm-3.9-5c-.1.5-.1 1 0 1.5s.3 1 .5 1.5c.3.4.7.8 1.1 1.1.9.6 2 .8 3.1.6.5-.1 1.1-.3 1.5-.6s.8-.7 1.1-1.2c.6-.9.7-2.1.5-3.2-.1-.6-.4-1.1-.7-1.5-.3-.4-.8-.7-1.3-1-.5-.2-.9-.4-1.5-.5-.5-.1-1 0-1.6.1-.1 0-.2.1-.4.1-.1 0-.2.1-.4.1-.2.1-.3.2-.5.3.2-.1.3-.2.5-.2.1 0 .2-.1.4-.1.1 0 .2 0 .4-.1.6-.1 1 0 1.4.1.6.2 1 .3 1.3.6.4.2.8.6 1 .9.3.4.4.8.5 1.2.2.9 0 1.9-.5 2.7-.4.8-1.2 1.3-2.2 1.6-.9.2-1.9.1-2.7-.3-.8-.4-1.4-1.2-1.7-2.2.3-.5.2-1 .2-1.5zm.6-1.3c-.3.9-.4 1.8-.1 2.7.3.9.8 1.7 1.6 2.1s1.7.5 2.5.3 1.6-.7 2-1.4c.4-.7.6-1.6.4-2.5-.1-.4-.2-.8-.5-1.1-.2-.3-.6-.6-.9-.8-.3-.2-.7-.4-1.3-.5-.4-.1-.8-.1-1.3-.1-.1 0-.2 0-.3.1-.1 0-.2.1-.3.1l-.6.3c-.5 0-.9.3-1.2.8z" fill="#000000" stroke-width="none" opacity="1"></path><path id="SvgjsPath6277" d="M81 84.6c-1.2-.3-2.6 1.2-2.3 2.4.1.3.3.5.6.5s.6-.1.8-.4c.1-.1.1-.2.2-.3l.1-.1v-.1l.1-.1.1-.1s.2-.1.1-.1c.2-.1.4-.1.5-.2.7-.3.6-1.3-.2-1.5z" fill="#ffffff" stroke-width="none" opacity="1"></path></g></g></g><g id="svga-group-eyesfront-left"><path id="SvgjsPath9558" d="M81 74.4c-6.9 0-12.5 5.6-12.5 12.5S74.1 99.4 81 99.4s12.5-5.6 12.5-12.5S87.9 74.4 81 74.4zm7.1 17s-3.9.4-5.4.4c-4.1 0-7.1-1.8-7.1-1.8s-7.5-5.3-2.3-7.1c5-1.7 11.2.8 13.2 2.9 2.1 2.1 1.6 5.6 1.6 5.6z" fill="#ffffff" stroke-width="none" opacity="1"></path><path id="SvgjsPath9559" d="M71.3 84c-.3.8-.2 1.7.4 2.8 1.4 2.4 3.9 4.2 7.1 4.9 1.2.3 2.5.4 3.9.4s3-.1 4.7-.4c.1 0 .2-.1.3-.2 0 .1.1.3.3.3.2.1.5 0 .6-.3.7-1.9 0-4.3-1.6-6-1.2-1.3-3-2.2-5.4-3-3.2-.9-5.9-1-8.2-.2-1.2.5-1.8 1-2.1 1.7zm.8.4c.2-.5.7-.8 1.5-1.1 2.1-.7 4.7-.6 7.7.2 2.3.7 3.9 1.5 5 2.7 1.4 1.4 1.9 3.4 1.4 4.9-.1-.2-.2-.3-.4-.3h-.1c-3.3.6-6 .6-8.3 0-2.9-.7-5.3-2.3-6.5-4.5-.3-.5-.6-1.3-.3-1.9zm-4.9-3c.1 0 .2.1.2.2 0 .3.1.5.3.7.4.3 1.3.4 2.2.3.4-.1.9-.3 1.6-.5 1.6-.6 3.8-1.3 6.5-1.4 3.6-.1 8.3 1.2 10.3 4.2 1.2 1.7 1.7 4.2 1.5 7.2v.1c0 .1-.1.2-.2.2s-.2-.1-.2-.2V92c.2-2.9-.3-5.3-1.4-7-1.9-2.8-6.5-4.1-9.9-4-2.6 0-4.8.8-6.4 1.3-.6.2-1.2.4-1.6.5-1.1.4-2.1.2-2.6-.2-.3-.2-.5-.6-.5-1 0-.1.1-.2.2-.2z" fill="#000000" stroke-width="none" opacity="1"></path></g></g></g><g id="svga-group-eyes-right-move" transform="matrix(1,0,0,1,-1,0)"><g id="svga-group-eyes-right"><g id="svga-group-eyesback-right"></g><g id="svga-group-eyesiriswrapper-right"><g id="svga-group-eyesiriscontrol-right" transform="matrix(1,0,0,1,0,0)"><g id="svga-group-eyesiris-right"><path id="SvgjsPath6278" d="M119.5 82.8c2.2 0 3.9 1.7 3.9 3.9s-1.8 3.9-3.9 3.9-3.9-1.7-3.9-3.9 1.8-3.9 3.9-3.9z" fill="#000000" stroke-width="none" opacity="1"></path><path id="SvgjsPath6279" d="M116.1 84.6c-.4.9-.4 2-.1 2.9.3.9.8 1.7 1.6 2.1s1.8.5 2.6.3c.9-.2 1.6-.7 2.1-1.5.4-.8.6-1.7.4-2.6-.1-.4-.3-.8-.5-1.2-.3-.3-.6-.7-1-.9-.4-.2-.8-.4-1.3-.5-.4-.1-.9-.1-1.4-.1-.1 0-.2 0-.4.1-.1 0-.2.1-.3.1l-.6.3c-.4.3-.8.7-1.1 1 .2-.4.5-.8.9-1.2.2-.2.4-.3.7-.4.1-.1.2-.1.4-.1s.2-.1.4-.1c.5-.1 1.1-.2 1.6-.1s1 .2 1.5.5c.5.2 1 .6 1.3 1 .4.4.6 1 .8 1.5.3 1.1.1 2.3-.5 3.3-.3.5-.7.9-1.2 1.2s-1 .6-1.6.7c-1.1.2-2.3.1-3.2-.6-.5-.3-.9-.7-1.2-1.2-.3-.5-.5-1-.6-1.5-.1-1 .2-2.1.7-3z" fill="#ffffff" stroke-width="none" opacity="1"></path><path id="SvgjsPath6280" d="M119.5 91.1c-.9 0-1.7-.2-2.4-.7-.5-.3-.9-.7-1.2-1.2-.3-.5-.5-1-.6-1.6-.2-1.1.1-2.2.6-3.1.2-.3.4-.6.6-.8l.2-.2v.1l.2-.2c.2-.2.4-.3.7-.5.1-.1.2-.1.4-.2.1 0 .3-.1.4-.1.6-.2 1.1-.2 1.7-.1.6.1 1.1.2 1.6.5s1 .6 1.4 1.1c.4.4.6 1 .8 1.6.3 1.1.1 2.4-.5 3.4-.3.5-.7 1-1.2 1.3-.5.3-1 .6-1.6.7h-1.1zm-3.8-5c-.1.5-.1 1 0 1.5s.3 1 .5 1.5c.3.4.7.8 1.1 1.1.9.6 2 .8 3.1.6.5-.1 1.1-.3 1.5-.6s.8-.7 1.1-1.2c.6-.9.7-2.1.5-3.2-.1-.6-.4-1.1-.7-1.5-.3-.4-.8-.7-1.3-1-.5-.2-.9-.4-1.5-.5-.5-.1-1 0-1.6.1-.1 0-.2.1-.4.1-.1 0-.2.1-.4.1-.2.1-.3.2-.5.3.2-.1.3-.2.5-.2.1 0 .2-.1.4-.1.1 0 .2 0 .4-.1.6-.1 1 0 1.4.1.6.2 1 .3 1.3.6.4.2.8.6 1 .9.3.4.4.8.5 1.2.2.9 0 1.9-.5 2.7-.4.8-1.2 1.3-2.2 1.6-.9.2-1.9.1-2.7-.3-.8-.4-1.4-1.2-1.7-2.2.2-.5.2-1 .2-1.5zm.5-1.3c-.3.9-.4 1.8-.1 2.7.3.9.8 1.7 1.6 2.1s1.7.5 2.5.3 1.6-.7 2-1.4c.4-.7.6-1.6.4-2.5-.1-.4-.2-.8-.5-1.1-.2-.3-.6-.6-.9-.8-.3-.2-.7-.4-1.3-.5-.4-.1-.8-.1-1.3-.1-.1 0-.2 0-.3.1-.1 0-.2.1-.3.1l-.6.3c-.5 0-.8.3-1.2.8z" fill="#000000" stroke-width="none" opacity="1"></path><path id="SvgjsPath6281" d="M119.6 84.6c-1.2-.3-2.6 1.2-2.3 2.4.1.3.3.5.6.5s.6-.1.8-.4c.1-.1.1-.2.2-.3l.1-.1v-.1l.1-.1.1-.1s.2-.1.1-.1c.2-.1.4-.1.5-.2.6-.3.6-1.3-.2-1.5z" fill="#ffffff" stroke-width="none" opacity="1"></path></g></g></g><g id="svga-group-eyesfront-right"><path id="SvgjsPath9560" d="M119 74.4c-6.9 0-12.5 5.6-12.5 12.5s5.6 12.5 12.5 12.5 12.5-5.6 12.5-12.5-5.6-12.5-12.5-12.5zm5.3 15.6s-3 1.7-7.1 1.8c-1.5 0-5.4-.4-5.4-.4s-.5-3.4 1.5-5.5 8.2-4.6 13.2-2.9c5.4 1.7-2.2 7-2.2 7z" fill="#ffffff" stroke-width="none" opacity="1"></path><path id="SvgjsPath9563" d="M126.6 82.4c-2.3-.8-5.1-.7-8.2.2-2.4.7-4.2 1.7-5.4 3-1.6 1.7-2.3 4-1.6 6 .1.2.3.4.6.3.2-.1.3-.2.3-.3.1.1.2.2.3.2 1.7.3 3.3.4 4.7.4 1.4 0 2.7-.1 3.9-.4 3.1-.7 5.7-2.6 7.1-4.9.6-1.1.7-2 .4-2.8-.4-.8-1-1.3-2.1-1.7zm.9 3.9c-1.2 2.2-3.6 3.8-6.5 4.5-2.3.6-4.9.5-8.3 0h-.1c-.2 0-.4.1-.4.3-.5-1.6.1-3.5 1.4-4.9 1.1-1.2 2.7-2 5-2.7 3-.9 5.6-.9 7.7-.2.8.3 1.3.6 1.5 1.1.3.6 0 1.4-.3 1.9zm5.2-4.9c-.1 0-.2.1-.2.2 0 .3-.1.5-.3.7-.4.3-1.3.4-2.2.3-.4-.1-.9-.3-1.6-.5-1.6-.6-3.8-1.3-6.5-1.4-3.6-.1-8.3 1.2-10.3 4.2-1.2 1.7-1.7 4.2-1.5 7.2v.1c0 .1.1.2.2.2s.2-.1.2-.2V92c-.2-2.9.3-5.3 1.4-7 1.9-2.8 6.5-4.1 9.9-4 2.6 0 4.8.8 6.4 1.3.6.2 1.2.4 1.6.5 1.1.2 2.1.1 2.6-.3.3-.2.5-.6.5-1 0 0-.1-.1-.2-.1z" fill="#000000" stroke-width="none" opacity="1"></path></g></g></g><g id="svga-group-facehighlight-single"></g><g id="svga-group-eyebrows-left-move" transform="matrix(1,0,0,1,2,0)"><g id="svga-group-eyebrows-left-rotate" transform="matrix(0.9914448609181878,0.1305261956808468,-0.1305261956808468,0.9914448609181878,10.281558464494523,-9.760200847752046)"><g id="svga-group-eyebrows-left"><path id="SvgjsPath6789" d="M79.33 76.19c4.88.09 10.13.99 11.3.09 1.18-.9.9-4.61 0-5.15s-6.96-1.36-13.74.54-9.49 3.98-9.04 4.52c.45.54 6.42-.09 11.48 0z" fill="#ffffff" stroke-width="none" opacity="1"></path><path id="SvgjsPath6790" d="M67.49 76.48c.37.45 1.38.45 5.51.29 1.98-.08 4.22-.16 6.32-.13 1.67.03 3.42.16 4.96.27.94.07 1.76.13 2.5.16.02.01.04.02.07.02.02 0 .04-.01.06-.01.52.03 1.01.04 1.43.04 1.25 0 2.09-.13 2.56-.49 1.01-.78.98-2.72.95-3.3-.03-.49-.18-2.13-1-2.62-1.17-.7-7.39-1.39-14.1.49-5.99 1.68-9.07 3.56-9.39 4.59-.06.27-.02.51.13.69zm8.6-.74-3.3-2.24c.5-.19 1.05-.39 1.65-.6l2.68 2.82c-.35.01-.69.02-1.03.02zm10.01-.96-2.07-3.8c.44-.02.87-.03 1.28-.04.11.62.46 2.3.79 3.84zm-2.82.42-2.09-3.95c.7-.1 1.38-.17 2.03-.22l.06 4.17zm-.33.7c-.76-.05-1.54-.1-2.32-.13-.44-.91-1.58-3.16-2.03-4.05.66-.15 1.31-.28 1.94-.38l2.41 4.56zm5.89-1.82-.72-3.03c.26.03.5.06.72.09v2.94zm1.51 1.83c-.17.13-.48.21-.89.25v-4.91c.47.09.8.19.94.27.18.11.48.78.55 1.88.06 1.16-.19 2.19-.6 2.51zm-3.32.26c-.42-1.94-.94-4.41-1.1-5.23.55.01 1.07.03 1.54.06l1.23 5.2c-.49.02-1.05 0-1.67-.03zm-3.13-.2-.06-4.03 2.29 4.19-1.78-.12c-.14-.02-.3-.03-.45-.04zm-6.04-.25c-.01-.06-.02-.12-.06-.16l-2.72-2.86c.6-.19 1.24-.39 1.93-.58.32-.09.64-.17.96-.25.52 1.02 1.47 2.9 1.95 3.88-.2-.01-.4-.01-.59-.02-.48-.02-.97-.02-1.47-.01zm-9.47.17c.36-.41 1.5-1.19 3.71-2.12l2.94 2c-.71.02-1.41.05-2.07.07-1.81.08-3.84.16-4.58.05z" fill="#000000" stroke-width="none" opacity="1"></path></g></g></g><g id="svga-group-eyebrows-right-move" transform="matrix(1,0,0,1,-2,0)"><g id="svga-group-eyebrows-right-rotate" transform="matrix(0.9978589230103032,0.06540313271332773,-0.06540313271332773,0.9978589230103032,5.069552953616807,-7.716343214526063)"><g id="svga-group-eyebrows-right"><path id="SvgjsPath6791" d="M120.67 76.19c-4.88.09-10.13.99-11.3.09-1.18-.9-.9-4.61 0-5.15s6.96-1.36 13.74.54 9.49 3.98 9.04 4.52c-.45.54-6.42-.09-11.48 0z" fill="#ffffff" stroke-width="none" opacity="1"></path><path id="SvgjsPath6792" d="M132.62 75.81c-.32-1.03-3.4-2.91-9.39-4.59-6.71-1.88-12.93-1.2-14.1-.49-.81.49-.97 2.13-1 2.62-.03.58-.06 2.52.95 3.3.47.36 1.31.49 2.56.49.43 0 .91-.02 1.43-.04.02 0 .04.01.06.01.02 0 .04-.01.07-.02.74-.04 1.56-.1 2.5-.16 1.55-.11 3.3-.24 4.96-.27 2.1-.04 4.34.05 6.32.13 4.13.16 5.14.15 5.51-.29.17-.2.21-.44.13-.69zm-9.74-.08 2.68-2.82c.6.2 1.15.4 1.65.6l-3.3 2.24c-.34-.01-.68-.02-1.03-.02zm-8.19-4.79c.41 0 .84.02 1.28.04l-2.07 3.8c.33-1.54.68-3.22.79-3.84zm2.09.09c.65.05 1.33.12 2.03.22l-2.09 3.95.06-4.17zm2.68.31c.63.1 1.28.23 1.94.38-.45.89-1.59 3.14-2.03 4.05-.78.03-1.56.08-2.32.13l2.41-4.56zm-8.3-.19c.22-.03.46-.06.72-.09l-.72 3.03v-2.94zm-2.1 2.25c.06-1.1.36-1.77.55-1.88.14-.08.46-.18.94-.27v4.91c-.41-.05-.73-.12-.89-.25-.42-.32-.67-1.35-.6-2.51zm2.23 2.8 1.23-5.2c.47-.03.99-.05 1.54-.06-.15.82-.68 3.29-1.1 5.23-.61.03-1.17.05-1.67.03zm4.36-.2c-.6.04-1.2.09-1.78.12l2.29-4.19-.06 4.03c-.15.02-.31.03-.45.04zm5.01-.28c-.2 0-.4.01-.59.02.48-.98 1.44-2.86 1.95-3.88.32.08.64.16.96.25.69.19 1.34.39 1.93.58l-2.72 2.86c-.04.05-.05.11-.06.16-.49 0-.98 0-1.47.01zm6.37.13c-.66-.03-1.36-.05-2.07-.07l2.94-2c2.21.92 3.35 1.71 3.71 2.12-.74.1-2.77.02-4.58-.05z" fill="#000000" stroke-width="none" opacity="1"></path></g></g></g><g id="svga-group-nose-single-move" transform="matrix(1,0,0,1,0,0)"><g id="svga-group-nose-single"><path id="SvgjsPath4252" d="M96.5 90.5c-1.9 4.4-3.5 8.8-4.7 13.5-.4 1.6-.7 3.4.9 4.4.7.4 1.4.3 2.2.4 1.4.1 2.1 1.1 3.1 1.9 1.1 1 2.4 1.4 3.7.5.7-.5 1.2-1.4 1.9-1.9.9-.6 2-.4 2.8-1 2.9-2 .3-6.1-1.1-8.2-.4-.5-1.2 0-.8.5.8 1.1 1.5 2.3 2 3.5.3.7.4 1.5.2 2.3-.4 1.2-1.4 1.4-2.4 1.6-1.2.3-1.8 1.1-2.7 2-1.8 1.8-3.1-.5-4.5-1.6-.4-.3-.8-.5-1.4-.6-.8-.1-1.7.1-2.4-.3-1.2-.8-.7-2.3-.5-3.4.2-.9.4-1.8.7-2.7 1-3.6 2.4-7.1 3.9-10.5.1-.5-.7-1-.9-.4z" fill="#000000" stroke-width="none" opacity="1"></path></g></g><g id="svga-group-hair-front"><path id="SvgjsPath8897" d="M176.3 114.9c-1.2.3-1.9-.3-2.2-1.8l.9-1.2c.5-1 .6-1.8.6-2.8 0-.8-.5-1.5-1.1-1.8 1.4-3.2-.1-4.7-1.1-7.9-.8-2.6.4-4.4-2-6.5-.7-.6-1-.3-1.6-1.1-.3-.4-.2-1.2-.4-1.7-.4-.8-1.6-1.8-1.9-2.5-.5-1.4.5-3-.1-4.6-.5-1.3-1.6-1.7-1.7-3.2-.2-2.4 1.1-4.2-1-6.2-1.8-1.7-1.7-.6-1.9-3.4-.1-1.1.1-1.9-.5-2.9-.9-1.3-2-.7-3-1.5s-.4-1.3-.5-2.8c-.2-2.8-1.4-2.9-3.1-3.8-.1-2.2 0-3.9-1.4-5.2.3-1.2.2-2.5-.8-3.6-.7-.8-1.8-.7-2.5-1.1-.1 0-.1-.1-.1-.1 0-.1-.1-.4-.1-.7-.6-2-.9-3.1-3-3.6-1.6-.4-2.2.5-3.5-1.1-.3-.4-.1-1.6-.5-2.2-.9-1.3-1.9-.9-2.9-.9-.3-.8-.6-1.4-1.6-2-.2-.2-.5-.3-.8-.3-.3-.7-.7-1.3-1.7-1.7-.2 0-.6-.1-1-.1-.2-.8-.3-1.5-1.3-2.1-.1-.1-.3-.1-.5-.2-.9-1-1.9-1.2-3-1-.2-1.5-1.4-2.8-3.1-2.3-2.9.8-2.3-.4-4.3-1.7-1.7-1.1-2.9.1-4.3-.4-.8-.3-1.6-1.5-2.7-1.8-1.4-.4-2.7.7-3.9.4-1-.3-1.4-1.6-2.7-1.8-.7-.1-2.7.7-2.8 1.2-.5-.5-1.1-1.2-1.8-1.2-1.2 0-2.3 1-3.3 1.8-.6-.8-1.4-1.4-2.5-1.4-.4-.6-1.1-1.1-2.1-1.2-.7-.1-1.4 0-2.1.3-.7-.8-1.7-1.2-2.8-.9-.7.2-1.1.4-1.7.8l-.4.4c-.4-.2-.9-.4-1.4-.5-.9-.1-1.7.1-2.4.4-.2-.1-.4-.2-.7-.3-1.2-.2-2.3-.3-3.4.1-.6.2-1 .6-1.4 1-.2 0-.3-.1-.5-.1-.7-.1-1.4-.1-2 .2-.5.2-1.3.9-1.5 1.5 0 .1 0 .1-.1.2-.2-.1-.3-.2-.5-.3-2.1-1-3.9.9-4.4 2.9-.5-.1-1 0-1.5.4-1 .9-2.2 1.1-3.5.9-1.8-.4-3.2.8-3.3 2.6-.1 1.5-1.8.3-3.2 1-1.4.7-1.5 1.9-2 3.1-.5 1.3 1 .1.1.9-.3.2-1.4.2-1.8.4-1.1.6-1.6 1.6-1.8 2.7-.1.5 0 .9 0 1.4.1.9.1 1.5.3 1.4-.7.4-2 .5-2.7 1.2-1.1 1.1-1.5 2.6-1.3 4-.8.3-1.6.4-2.6.6-1.2.2-1.7 1.7-1.5 2.7.1.5 1.4 2.6 1.3 2.8-.2 1.1-1.4.9-2.2 1.5-.9.8-1.3 4.6-2.2 4.5-.9-.1-1.4.8-1.5 1.5-.2 1.4 1.8 3.6-.5 4.1-1.2.3-1.9 1.9-1.2 3 1.5 2.3-1.1 2.5-1.6 4.5-.2.7 0 1.6.3 2.2.3.5.4.8.6.9-.9.4-2.2.4-2.9 1.5-.6.9-.3 4.6-.7 4.6-1.8.1-3.3 2.1-2.2 3.8.5.6.9 1.2 1.2 1.9-2 .2-3.1 2.1-2.2 3.9l1.3.7c-1.7-.3-3.5 1.1-2.9 2.9.3 1.1.8 1.9 1.2 2.8-.7.4-1.5.7-1.9 1.6-.6 1.4.9 3.9-.9 4.6-.8.3-1.1 1.1-.8 1.8.5 1.1.8 2 .6 3.3-.1.6-.9 1.1-.8 1.8 0 1.5.2 2.2 1.6 2.7 1.3.6 2.8-.9 1.6-2.1.4.4 1.1-3.8 1.1-3.9-.1-.6-.5-1.1-1-1.6 1.4-.5 2.5-1.3 2.8-3 .1-.4.1-1.8-.3-1.9.4-.2 1.2-.5 1.8-.8-.7.9-.6 2.5.1 3.4-1.6 1.2-1.9 4.5.7 4.9 1.1.2 1.3.4 1 1-1.2.5-2 2-.8 3.1.1.1.2.2.3.2.1.1.1.2.2.3-.2.1-.4.1-.6.3-.6.4-1.2 1.1-1.4 1.8-.2.8-.1 1.6.3 2.3.4.6 1 1.3 1.8 1.4 0 .2 0 .3-.1.5-.2 2.3 3.2 3.1 4.3 1.2.3-.8.8-1.4 1.6-1.8 2.1-.2 3.4-2.2 2.4-4.1.1-.8.2-1.7.3-2.5.7-.7.9-1.6.8-2.5.2.8.6 1.5 1.2 2-1.7.8-2.6 3.6-.4 4.6.1 0 .2.1.2.1-.1.1-.2.1-.2.2-1.7 1.1-1.6 3.2 0 4.3-.1.3-.2.6-.4.9-1.9 1.3-.8 5 1.7 4 3-1.2 4.1-3.9 3.3-6.4.4-.3.9-.7 1.4-1.2.9-.8.8-2.2 0-3.1 0 0 0-.1-.1-.1.4-.3.8-.6 1.3-.9.2-.1.3-.3.4-.5.2.6.6 1.1 1.1 1.4.1.1.2.2.3.2-.5.3-1 .6-1.4 1.4-.7 1.2-.2 3.1 1.1 3.7-1.5 1-1 3.4.5 4.2-.3 1.7 1.2 3.9 3.2 3.1.7-.3 1.4-.6 2.2-.9 2.3-.9 2.5-3.4.6-4.9l-.9-.6c.3-.9.3-1.9 0-2.8.1-.1.2-.1.3-.2.7-.6 1.1-1.2 1.3-2.1.3-1.5-.2-2.5-1-3.4 1-.7 1.9-1.5 1.9-3.2 0-1.5-.7-2.6-1.8-3.5.4-.5.8-1.1.8-1.6.2-1.4-.1-2.2-.9-3.3-.2-.2-.9-1.1-1.5-1.4.6-1 1.4-3.1 1.2-4.2-.2-1.2-.8-2.2-1.6-3.1 1.5-1.8 1.5-4.4.2-6.5 1.6-1.8 1.8-4.3.9-6.5.4-.3.8-.8 1.1-1.2-.2.5-.2.9-.2 1.5.2 2 1.2 3.7 1.1 5.8-.1 1.7-.6 1.5-.1 3.2.1.3.5.5.6.8.5 1.2 1 2.4.7 4.1-.2 1.2-1.2 2-1 3.4.1 1.2.6 1.2 1.1 2.3.8 1.6.4 1.2-.3 3.1-.8 2.2-.3 2.3.8 3.9.8-.1 1.1.3.9 1.1.1.4.1.9-.1 1.3 0 .5-.2.8-.1 1.2.2.7.3 1.1.6 1.4-.8 1.6-1 3-.2 4.8.2.4.9.6 1 0 .1-1.6.7-3 1.8-4.3.5-.6.5-1.6-.2-2-.8-.4.3-2.8.2-3.5-.1-.7-.6-1.2-1-1.8-1-1.3-1.4.1-.4-2 .4-.8 1.2-1.3 1.3-2.3.3-2.9-2.9-2.2-2.2-5.4.7-3.1 1.8-3.1.4-6.2-1.1-2.5-.1-4-.5-6.6-.1-.6-.8-.9-.9-1.5-.4-1.2.1-2.8.5-4 .3-.9 1-1.6.8-2.6-.1-.8-.6-1-.9-1.6-.1-.2-.8-.2-.9-.4-.4-1.1 1-2.6 1.2-3.7.1-.4.1-.7.2-1.1.4.1.9-.2.9-.7 0-1.1 0-2.1.1-3.1.1-.8.1-1.6.2-2.4.2.7.4 1.3.7 2 .3.7 1.3.2 1.2-.5-.2-1.3-.3-2.6-.3-4 .3 1.6.7 3.2 1.3 4.8.2.6 1.3.6 1.2-.2-.3-3.5-.8-6.6-.6-9.9-.1 3.3.1 6.4.7 9.2.2.8 1.3.6 1.3-.2.1-1.6.1-3.2.2-4.9.2 1.7.5 3.4.9 4.8.2.8 1.4.6 1.4-.2.1-1.2 0-2.5 0-3.7.2 1.4.5 2.8.9 4.1.2.7 1.3.6 1.3-.2 0-1.8 0-3.5-.1-5.3.3 1.7.6 3.4 1.2 5 .2.6 1.1.4 1-.3-.2-1.4-.4-2.7-.5-4.1l.2.2c.1 1.4.2 2.7.4 4 .1.8 1.5.6 1.5-.2-.1-1.2-.1-2.4 0-3.6.1 1.5.3 3.1.5 4.5.1.7 1.2.5 1.2-.2v-2c.1.8.2 1.6.4 2.4.1.5.9.4.9-.1.1-1.9.3-3.9.5-5.8 0 1.8 0 3.6.1 5.3.1.7.9.6 1 0l.3-2.4v3.6c0 .6.9.7 1 .1.1-.3.1-.6.1-.8v.2c0 .5.8.7.9.1.1-.2.1-.5.2-.8 0 .4 0 .8.1 1.1 0 .4.7.6.8.1l.3-2.1c0 .5 0 1 .1 1.5 0 .4.7.6.8.1l.3-2.1c0 .8 0 1.5.1 2.2 0 .4.7.6.8.1.7-4.7.8-9.5.8-14.2.1-1.3.1-2.5 0-3.8 0-.8.1-1.7.1-2.6 0-.2.1-.4.1-.5.4 7 0 13.9 0 21.1 0 .4.7.6.8.1 1.3-7.8 2.1-16.4.9-24.5.5 2 1 4.1 1.6 6.1.1.8.2 1.5.3 2.3.5 5.2.1 10.5.5 15.7 0 .5.8.6.9.1.9-3.7 1-7.6.8-11.5.1-.1.1-.2.1-.3l-.3-3.9v-.2l-.3-4.2.6 2.7c1.1 5.6 1.7 11.3 2.4 17 .1 1.1 1.7 1.1 1.7 0 0-.8-.1-1.6-.1-2.4h.1c.1.8.2 1.6.2 2.4.1.5.7.5.8 0 .5-4.1.6-8.4.3-12.7 0-.8.1-1.6.1-2.5v.1c.1.8.1 1.6.1 2.4.2 4.4-.3 8.8.2 13.1.1.4.7.6.8.1.3-1.2.6-2.5.7-3.9.1.9.3 1.8.4 2.7.1.7 1.1.5 1.1-.2v-4.8c.2 1 .3 2 .6 3 .1.6 1 .4 1-.1.2-6.6-.4-15.2-2.2-22.2.8 2.5 1.4 5.1 1.8 7.7.9 5.5.9 11.1 1 16.7 0 .5.7.6.8.1.5-2.1.8-4.2.9-6.4.2 1.9.4 3.8.5 5.8 0 .2.2.4.4.4.1.4.8.4.9-.1.1-1.2.3-2.3.4-3.5.2 0 .4 0 .6-.1.1 1.3.1 2.6.2 3.9 0 .6 1.1.8 1.2.2 0-.2 0-.4.1-.6.1 1 .2 2.1.3 3.1.1.5.7.5.8 0v-.4c.1.3.6.4.7 0 1-5.2 1-11 .3-16.6.1 0 .1 0 .1-.1.1.8.3 1.6.3 2.3.5 4.6.4 9 .2 13.5 0 .7 1.1.8 1.2.2 1.2-4.1 1.1-8.4.7-12.7.8 3.4 1.6 6.8 2.1 10.3v.4c0 .3.2.4.4.4 0 .3.1.5.1.8 0 .2.2.4.3.4v.1c0 .6.7.6.9.1.6-1.6 1-3.3 1.3-5 0 1.7.1 3.4.1 5.1 0 .5.7.6.8.1.1-.5.2-1.1.3-1.6v.8c0 .7 1 .8 1.2.2 0-.2.1-.3.1-.5.1 1.8.3 3.6.4 5.3 0 .5.6.6.8.2 0 .6.8.7 1 .1.2-.7.4-1.3.6-2l.3 6.3c0 .6 1 .8 1.1.2.1-.4.1-.9.2-1.3V77c0 .4.3.6.6.7.2.3.5.4.4 1.1-.1.1-.2.2-.3.4-.3.5-.4 1.2-.4 1.8v.1c-.9 2.2-1.2 2.1-1 4.4.2.4.6.7.9.9-.1.9-.5 1.7-1.1 2.4-.2.5-.4 1-.5 1.6-.2 1.2.7 1.6.3 3.2-.3 1-1.2 1-1.4 2.2-.2 1.3.2 2.3 1 3.1-1.1 1.8-1.2 3.8.4 5.5.5.5 1.4 0 1.2-.7-.5-1.4-.4-2.8.5-4.2.4-.6.4-1.2-.2-1.6-2.7-2 .9-2.7 1-3.9 0-.4-.2-2.4-.2-2.6.2-1.4.9-2.4 1.3-3.6.1.2.2.4.2.7 0 .6-.6.9-.7 1.6-.2 1.1-.5 1.5-.2 2.6.2.9 1.3 1.5 1.5 2.2.3.9-.1.9-.6 2.1-.4.9-.7 1.7-.5 2.7.1.7.4 1.4.8 1.9.3.3.5.5.7.6l-.1.1c-1.5 2.1-1.6 4.5-.4 6.3-.7.9-1.2 1.9-1.2 3.2 0 .7.3 1.6.6 2.2.1.1.4.6.8.9-.1.3-.2.6-.2.9-.2.8-.3 1-.2 1.8.1 1.1.6 2 1.2 2.7-.8 1.6-.8 3.5.1 5.1-.8 1.4-.8 3.1.1 4.5-.8 2.5 2.6 4.4 4.1 2 .2-.4.5-.8.7-1.2.5-.8.4-2.2-.4-2.8-.1-.1-.2-.3-.3-.4 1.5-1.1 1.5-3 0-4.1 0-.4 0-.8.1-1.2 1.6-1.1 1.4-3 0-4.1-.9-.7.3-2.6.1-3.7-.2-1.3-2.4-2.8-.9-3.9.2-.1.3-.3.5-.4.3.4.5.9.7 1.5.2.7 1 1 1.6.7-.6 1-1 2.1-.5 3.5.2.7.7 1.2 1.2 1.6-.4.9-.7 2.3-.6 2.9.2 1.2.9 2 1.7 2.6-.3 1.7-.9 2.9.8 4.5.6.6 2.1 1.6 3 1.6 1.5-.1 2.5-1.7 1.7-3-.9-1.7-.7-2.8-.5-4.7.1-1.1-.9-2-1.8-2.4 1.1.4 1.4-2.1 1.1-3.2-.1-.5-1-1.3-1.1-1.6 0-.3 1-1.5 1.3-2.1.1-.2.2-.5.3-.7.4.9 1 1.7 1.1 2.7.1 1.6-.9 2.7-.1 4.4.2.5 1 1 1.3 1.5-.1 0-.2.2-.2.9-.1 1.5-.5 2.2.4 3.7.3.6.8.9 1.4 1.1-.1.8.3 1.5 1 2 .5.3.9.6 1.2.7.1.5.4.9.9 1.4.3.3.7.4 1.1.1 1.1-.6 1.3-1.1 1.6-2.3.2-.8-.1-1.8-.9-2.2h-.1c.1-.2.3-.4.4-.6.7-.9.9-2.7-.4-3.2-.1-.1-.2-.1-.3-.2.1-.3.2-.5.2-.8.1-.6.1-1.2-.1-1.8.2-.4.4-.9.5-1.4.2.3.6.6.9.8-.1.2-.1.6-.3 1.2-.3 1.7.4 3.4 2 4.2.3.1.6.2 1 .2.1.2.3.4.4.6.4.4 4.2 1.9 4.1.6 0 1 1.2 1.8 2.1 1.2.1-.1.3-.2.4-.3.6-.5.9-1.1.8-1.9-.1-.8-.5-1.3-.9-1.7v-.4c0-.9-.2-1.8-.6-2.6-.2-.4-.8-.8-.9-1.2v-.1c.5.4.8.1.9-.8.1-.1.1-.2.1-.3.9.8 2.1 1 3.3 1-.6 1.3 1.2 2.7 2.2 1.5.9-1.1 1.2-1.9 1.3-3.2.8-.5 0-1.2-.8-1.2zm-135-23c-.1 1.3 0 4.2-1.5 4.8-.5.2-1 .6-1.4 1 .3-.8.4-1.8.3-2.8 1.9-1.3 2.3-3.7 1.5-6.1.6-.4 1.1-1 1.5-1.6.2.7.6 1.3.9 2.1.1.2.2.4.3.5-.9.4-1.6 1.1-1.6 2.1zm1.7-9c-.3.5-.3 1-.3 1.5-.2.1-.3.3-.4.5 0-.6-.4-1.3-.4-1.8.1-.1.2-.2.4-.3.4-.3.8-.4 1.2-.6-.3.2-.4.5-.5.7zm3.2-8c-.2.1-.3.2-.5.3.3-.9.4-1.6.4-2.3.2.2.3.5.5.7-.1.5-.3.9-.4 1.3zm.3-8.8c-.1-.1-.2-.3-.3-.4 2-.5 2-2.8 3.4-4.4-.3 1-.4 2-.3 3-.5.2-1 .3-1.4.6-.6.3-1 .8-1.4 1.2zm1.3 46.5c-.1-.2-.2-.5-.3-.7 0-.4.1-.8.1-1.1.4-.5.7-1.1.8-1.7.2.2.4.3.7.4l.1.1c-1.2.6-1.6 1.8-1.4 3zm1.8-9c-1.1.5-1.8 1.6-2 2.8-.2-.2-.3-.3-.5-.4 0-.4 0-.8-.1-1.2 2.6-1 2.9-4.7 0-5.6.7-.8 1.3-1.5 2-2.3-.1 1.1.2 2.3 1.1 3.1-.8 1-1 2.4-.5 3.6zm1.4-9.4c.2-1-.2-1.9-1.3-2.4 0 0 .5-.5 1.2-1.1-.2 1.1 0 2.3.9 3.1-.3.2-.5.3-.8.4zm2.3-11-.2-.2c-.1-.4-.2-.7-.3-1.1 0 0 0-.1.1-.1.2.3.5.6.9.8h.1l-.6.6zm3.7 23.2c.2.2.3.3.5.4.1.1.1.1.2.1-.6.5-1 1.1-1.3 2.1 0-.5-.1-1-.2-1.5.3-.3.5-.7.8-1.1zm-.1 7.4-.3.3c-.1-.2-.1-.3-.2-.5-.4-.5-.7-.9-1.1-1.3.5-.7.8-1.5.9-2.3.1.9.5 1.9 1.4 2.3.3.1.5.2.8.4-.5.3-.9.6-1.5 1.1zM136.8 85l-.3.9c-.1-.1-.1-.2-.1-.3 0-.5.1-1 .3-1.5.1 0 .2.1.3.1-.1.3-.1.5-.2.8zm12.5 6.3c.1.1.2.1.2.1.1.4-.5 1.4-1 2.2v-.1c-.1-.7.7-1.4.8-2.2zm2.2 18.1c-.3-.5-.9-.9-1.5-1.2-.6-.2-1-.3-1.2-.4.2-.1.4-.2.4-.8-.1-.8.5-1.2.3-2.2-.1-.6-.7-1.5-1.1-1.9-.3-.3-.5-.4-.6-.6.3-1.1.8-2.2 1.1-3.4.8 1 .9.6.9 1.8.1 1.5-.8 2.6.1 4.1.4.6 2.5 2.1 2.4 1.7 0 .1-.6 1.8-.8 2.9zm6.4-39.7c.9.6.9.9.9 1.6-.2-.2-.5-.4-.8-.8-.2-.3-.3-.6-.4-.9.2 0 .3 0 .3.1zm-.5 30.4c-.3-.7-.2-1.3.1-2 .4.2.8.3 1.2.5.1.1.2.1.2.1v.6c.1 1.2-.1 2.1.2 3.1-.5-.8-1.3-1.4-1.7-2.3zm2.8 8c-.2 1.7.8 3.1.7 4.6 0 .3-.1.6-.1.9-1.2-1.8-2.9-2.1-2.1-5.6.4-1.7 1.5-2.6 1.1-4.5 0-.1 0-.1-.1-.1.1.1.2.3.3.4.6.7 1.2.9 1.3 1.2.1.6-1 2.4-1.1 3.1zm.7-26.8c-.2-.5.1-2.4-.2-3.3-.5-1.3-1.2-.9-1.3-2.7 0-.2.1-.4.2-.6.1.2.2.3.4.5.8 1 1.2.4 1.8 1.8.5 1.2.1 1.4.2 2.5 0 1.2.4 2.2.8 3.1-.7-.4-1.7-.8-1.9-1.3zm2.4 3.8c-.1-.4-.1-.8-.1-1.2.2.7.4 1.3.5 2.1-.1-.3-.3-.5-.4-.9zm2.2 9.4c-.3-1-.5-1.9-.6-2.8 0-.1 0-.4.1-.7.2.5.4 1 .7 1.7.2.7.3 1.2.5 1.6-.3 0-.5.1-.7.2zm4.6 17.9c0 .2-.1.3-.1.5-.5-.6-.8-.1-1-.7v-.1h1.2c-.1-.1-.1.1-.1.3z" fill="#000000" stroke-width="none" opacity="1"></path><path id="SvgjsPath8898" d="M91.1 36c-1.1 7.7-1.5 15.3-1.6 23.1 0 .2-.3.2-.3 0-.5-7.7.3-15.5 1.7-23.1 0-.1.2-.1.2 0zm-4.6 3.7c-1.4 4.2-2.5 8.5-2.9 12.9 0 .2.3.2.3 0 .7-4.4 1.6-8.6 2.9-12.8.1-.2-.2-.3-.3-.1zm-3.3 1.1c-1.7 5.2-2.6 10.5-2.3 16.1 0 .1.2.1.2 0 0-5.5.7-10.8 2.3-16 0-.2-.1-.2-.2-.1zm-.7-4.3c.1-.2-.2-.2-.3-.1-3.6 8.9-6.8 18.3-4.8 28 0 .1.3.1.3 0-1.2-9.8 1.5-18.8 4.8-27.9zm-5.6 6c-2.7 5.2-4.7 10.7-5.2 16.6 0 .2.3.2.3 0 1-5.8 2.5-11.2 5.1-16.5.2-.1-.1-.3-.2-.1zm-7.4 5c-1 5.3-1.5 10.7-1.2 16.1 0 .1.2.1.2 0 0-5.4.3-10.7 1.3-16 .1-.2-.2-.3-.3-.1zM101.3 36c2.3 6.3 3.8 12.8 5.2 19.4 0 .1.3.1.3 0-.9-6.7-2.8-13.2-5.3-19.4 0-.2-.2-.1-.2 0zm3.6 2.6c1.1 4.2 1.8 8.5 2.5 12.8 0 .2.4.2.4 0-.3-4.4-1.3-8.7-2.5-12.8-.1-.3-.4-.2-.4 0zm8.3 1.2c1.8 5.6 2.8 11.2 3.5 17 0 .2.4.2.3 0-.3-5.8-1.6-11.6-3.6-17.1 0-.2-.3-.1-.2.1zm3.9 7c.3 3.2.5 6.4 1.1 9.6 0 .2.4.2.4 0-.2-3.2-.8-6.4-1.2-9.6-.1-.2-.3-.2-.3 0zm7.3 2.6c.8 2.7 1.5 5.4 2.4 8 0 .1.2.1.2 0-.7-2.7-1.5-5.3-2.3-8-.1-.2-.3-.2-.3 0zm5.8.1c1.1 4 1.9 8 2.8 12.1 0 .2.4.2.4-.1-.5-4.1-1.6-8.2-3-12.1-.1-.1-.3 0-.2.1zM95.5 27.2c0-.1 0 0 0 0-.7 1-1.6 2.3-3 1.9-.7-.2-1.3-.8-1.9-1.1-.8-.4-1.5-.4-2.1.3-.9 1.2-.9 2.9-2.9 2.5-1.1-.2-2.1-.9-3.3-.9-2.5.1-1.8 4.9-4.7 3.5-.7-.3-1.5-1.1-2.4-.6-1 .5-.7 2.1-1.8 2.7-1.6.9-4.4-.5-5.6 1.2-.8 1.1.1 2.6-1.3 3.4-.9.5-2.1.5-2.9 1.2-.8.7-.4 1.4-.3 2.3.4 2.3-1.8 1.8-3.2 2.4-.8.4-1.1 1-1.1 1.8 0 .5.1 1 .2 1.6.1.7.1 1.1-.6 1.7-.4.3-.9.3-1.2.6-.7.5-1.1 1.3-1.2 2.1-.1.5-.1 1 .1 1.5 0 0 .2.7.2.6v.2s-.1 0-.2.1c-.8.5-1.4.5-1.8 1.5-.6 1.4 1.1 2.8-.2 4-1.5 1.4-3.7 1.6-3.5 4.1 0 .6.2 1.3.3 1.9.1 1.2-.3 1.7-1.4 2.2-.7.3-1.3.7-1.2 1.6.2 1.3 1.5 2.2 1.5 3.6 0 1.2-1.1 2.3-1.8 3.2-.5.7-1.1 1.5-1 2.3.1 1.6 2.1 2.3 1 4-.7 1.1-1.9 1.8-2.4 3-.2.5-.2 1-.2 1.5.1 1 .8 1.6 1 2.5.5 2.3-3.7 2.4-3.4 5 .2 1.5 2.2 3.6-.1 4.5-.7.3-1.6.6-1.4 1.5.2 1.1 1.8 1.5 2.1 2.6.3 1.4-1.8 2-2.5 2.8-.6.6-.7 1.4-.2 2.1.4.7 2.9 2 2.4 2.9-.2.3-.9.6-1.1 1-.3.5-.6 1.1-.7 1.7-.1 1.1.1 2 .8 2.8.1.1.2 0 .2-.2-1.4-1.7-.8-4.3 1.2-5.2l.1-.1c-.3-1-1-1.5-1.7-2.1-.4-.3-.8-.7-1-1.1-.5-1.1.5-1.8 1.3-2.4 1.4-.9 2.3-1.9.9-3.4-.3-.3-.7-.6-.9-.9-.8-1.1.2-1.5 1.1-2 .7-.3 1-.8 1-1.6-.1-1.3-1.4-2.5-1-3.9.3-1.2 1.8-1.6 2.6-2.3.5-.4.8-.9.8-1.5 0-.8-.6-1.4-.9-2.1-.4-1.3.1-2.5 1-3.5.6-.7 1.6-1.4 1.8-2.4.3-1.3-.9-1.8-1.3-2.9-.6-2.1 2.5-3.7 2.8-5.8.1-1-.4-1.8-.9-2.6-.2-.3-.4-.7-.5-1.1-.2-1 .5-1.2 1.2-1.6.4-.2.8-.3 1-.7.6-.9.2-2 0-3-.3-2 .6-2.8 2.3-3.8.7-.4 1.5-.9 1.7-1.7.1-.5 0-.8-.2-1.3-.3-.8-.5-1.4 0-2.1.5-.7 1.2-1.1 2.1-1 .1 0 .1-.1.1-.2-.9-1.2-.8-3 .3-4.1.7-.7 1.9-.7 2.2-1.8.2-1-.4-2-.1-3 .4-1.4 2-1.2 3.1-1.6.5-.2 1-.4 1.2-.9.5-1.3-1-2.6.6-3.5 1.3-.8 3.3-.6 3.5-2.6.1-.8 0-1.7.8-2.2.5-.3 1.1-.3 1.6-.3.9 0 1.8.1 2.6-.1.5-.1 1.1-.3 1.4-.8.3-.3.3-.7.5-1 .3-.8.5-1.4 1.6-1.2.3.1.7.3 1 .5 1.4.8 2.4.5 3-1 .5-1.2.9-2.5 2.5-2.3 1 .2 1.9.7 3 .9.7.1 1.3-.1 1.8-.6 1-1.1 1-3.5 3.2-2.2.8.5 1.7 1.3 2.7 1 .5-.1.9-.5 1.2-.8l.3-.3c.1-.2.3-.4.4-.6.7-.1 1.1.2 1.4.7 0 .1.1.1.1 0-.7-.5-1.1-.8-1.7-1zM62.4 55.9c.5-.4 1-.5 1.6-.9 1.4-.9.7-2.8.7-4.1 0-.7.1-1.2.5-1.7.5-.5 1.2-.5 1.9-.8.6-.2 1.1-.5 1.2-1.2.1-.5 0-1 0-1.5 0-.8.3-1.6.8-2.3.9-1.4 2.5-2.2 4.1-2.2.1 0 .1-.1.1-.1-.1-.3-.2-.6-.3-.8-.3-1.5.2-2.1 1.6-1.8 0 .1.1 0 0 0-1-.9-2 .4-1.9 1.4 0 .7.5 1-.2 1.2-.5.1-.9.2-1.4.4-.8.4-1.5.9-2 1.6-.5.7-.9 1.5-1 2.3v.7c0 .8.1.7-.4 1.4s-.4.6-1.1.8c-.3.1-.6.1-.9.3-1.5.6-1.3 2.1-1.1 3.5.1 1.4.1 2.5-1.4 3-.6.2-1.3.4-1.5 1.1-.2.6.2 1.2.5 1.8.2.4.9 1.3.3 1.8-.2.2-.9.2-1.2.4-1.6 1-1.6 2.7-.7 4.1.3.4.4.3.1.7-.3.5-1 .8-1.5 1.2-.5.4-1.1.9-1.4 1.6-.7 2.1 2.9 3.2 1 5.2-.9 1-2.5 1.7-1.6 3.3.5.9 1.5 1.4 1.7 2.4.3 1.2-.6 2.1-1.2 3-.9 1.2-1.4 2.3-.2 3.6 1 1 1.4 1.8.7 3.1-.4.8-1.1 1.5-1.6 2.3-.9 1.3-1.2 2.5-.2 3.8 2.3 3.3-3.1 2.9-2.5 5.6.1.7.7.9 1.2 1.2.2.1.5.2.7.3.3.4.3 1.2 0 1.5-.3.3-.8.5-1.2.6-1.4.8-1.8 1.8-.8 3 .9 1.2 1.8 2.1.8 3.6-.5.8-1.3 1.4-1.9 2.2-.4.5-.7 1.1-.6 1.8.1.4.3.8.5 1.2.1.2.3.4.4.6.3.3.2.7-.1 1.1 0 .5-.2.8-.6 1-1 1-1.4 2.5-.1 3.5.1.1.2-.1.1-.2-.8-.6-1-1.7-.5-2.6.4-.6 1.1-.6 1.5-1.2.6-.8-.2-1.6-.6-2.3-1.6-2.7 1.8-3.6 2.4-5.9.2-.8-.1-1.4-.5-2.1-.3-.4-.8-.8-1.1-1.3-.6-1.2.2-1.8 1.1-2.3 1.1-.6 2.7-1.7.9-2.7-1-.5-2-.9-1.1-2.3.4-.6 1.2-.9 1.7-1.3.8-.6 1.3-1.4.9-2.4-.2-.5-.7-.9-.9-1.4-.4-.8-.2-1.5.2-2.3.5-1 1.3-1.8 1.9-2.7.4-.6.7-1.4.5-2.1-.3-1.3-2.2-1.8-1.8-3.3.5-1.7 3-3 2-5-.7-1.4-2.9-2.4-1.2-4.1.7-.7 1.9-1.3 1.8-2.5-.1-1.3-1.7-1.9-1.7-3.3 0-1.6 2.3-2.5 3.3-3.6 0 0 .1-.1 0-.2-1.9-1.5-1-4.4 1.5-4.5.1 0 .1 0 .1-.1.2-.7-.1-1.3-.5-2-.1-.2-.2-.3-.3-.5-.1-.8-.1-1.1.5-1.6zm-1.7 68.5c.6-.8.9-1.6.1-2.5-.6-.6-2.1-.9-1.1-1.9.4-.3.9-.4 1.2-.9.4-.5.2-1.1-.3-1.4-.2-.1-.4-.2-.7-.2-.9-.3-1.1-1.8-.4-2.4.5-.5 1.1-.9 1.4-1.5.6-1.2-.3-2.3-1.2-3-.4-.3-1.2-1-1.2-1.5 0-.3.4-.7.7-.9.4-.4.8-.7 1.1-1.1.4-.7.2-1.3-.4-1.7-.1-.1-.3-.1-.4-.2-.1-.1-.2-.1-.4-.2-.1-.5-.2-1.1-.3-1.6.1-.4.6-.8.8-1.2.2-.5.3-1 .2-1.4-.1-.7-.5-1-.9-1.5-.3-.3-.4-.1-.2-.7s.6-1.2.8-1.7c.1-.1-.1-.2-.2-.1-.4.8-.8 1.5-1.1 2.3 0 .1 0 .2.1.2 1.3.5 1.7 1.9 1 3.1-.3.5-.8 1-.9 1.6-.2 1 .7 1.1 1.3 1.7 2.1 1.8-2.9 2.8-.8 4.7.6.6 1.5.9 1.9 1.8.7 1.5-.5 2.1-1.3 3-.5.6-1.1 1.5-.5 2.2.2.2.5.3.7.5.2.1.8.2 1 .4.7.8 0 1.1-.4 1.5-.6.4-1.3.7-1.3 1.4v.1c.7.3 1.5.6 1.9 1.3.6.9-.1 1.4-.5 2.2-.2.3-.4.5-.4.9.1 1.1 1.6 1.4 1.9 2.4 0 .1.1 0 .1 0-.3-1.8-2.5-1.9-1.3-3.7zm8.2-30.7c0-.1 0-.2-.1-.2-2.3 0-.6-3.5-.8-4.6-.1-.6-.4-.9-.8-1.2-.5-.5-.9-.9-.7-1.7.1-.4.3-.8.4-1.1.3-.8.6-1.6.1-2.4-.4-.6-.9-.8-1.2-1.5-.4-1.1-.1-2.3.8-3.1.1-.1 0-.2-.1-.2-1-.2-1.7-.9-2-1.9-.3-1.3.4-1.8 1-2.7.7-1.2-.8-2-.4-3.3.3-1 1.4-1.8 1.4-2.9 0-.5-.3-.9-.5-1.3-.7-1.4-.5-2.8.8-3.8.1-.1 0-.2-.1-.1-1.2.8-1.7 2.3-1.1 3.7.2.5.7 1 .7 1.6 0 .6-.3 1.1-.6 1.5-.4.6-.9 1.2-.9 1.9-.1 1.2 1.2 1.5.4 2.9-.3.6-.8.9-.9 1.6-.1.6 0 1.2.4 1.8.3.6.8.8 1.3 1.2.1.1.1.1.2.1 0 0-.1.1-.1.3-.1.2-.3.5-.4.8-.2.7-.3 1.5 0 2.1.4 1 1.6 1.5 1.5 2.6-.1.9-.7 1.6-.8 2.5 0 .5.1.8.4 1.2.5.6 1.1 1 1.2 1.9.1.7-.4 1.5-.5 2.2 0 .5 0 1.1.3 1.5.2.4.8.6.8.8 0 .2-.7 1.1-.8 1.4-.2.4-.3.8-.3 1.2-.1.5 0 1 .2 1.5.3.7.6.7.6 1.7 0 .9-.4 1.2-.6 1.9-.1.3-.1.6-.1 1 .2 1.4 1.9 3 .7 4.4-.1.1 0 .2.1.1.5-.5.6-1.1.5-1.8-.1-.5-.3-.9-.5-1.3-.2-.5-.6-1.2-.6-1.8 0-.5.3-1 .6-1.5.4-.7.4-1.3 0-2-.5-.9-.8-1.6-.5-2.6.1-.9.6-1.7 1-2.4zm-17 2.5c-.1 0-.1.2 0 .2 1.1-.4 1.1-1.5.8-2.5-.2-.8-.7-1.6-.2-2.5.5-.8.7-.5 1.2-1 .3-.3.4-.5.3-1-.2-.9-.9-1.5-.9-2.5 0-1.4.9-1.8 1.7-2.7.7-.8.5-1.6 0-2.5-.3-.6-.7-1.1-1-1.7-.2-.6-.4-1.2-.1-1.8.2-.4.7-.7 1-1 .7-.7.4-1.4-.1-2.1-.5-.6-1-1.1-.6-2 .2-.4.5-.7.8-.9.4-.3.8-.6 1-1.1.1-.3.2-.6.1-.9.1-.2 0-.2-.2-.4-.6-1-.6-2.1.7-2.6.1 0 .1-.2 0-.1-.9.2-1.4 1.2-1.2 2.1.2.9 1.2 1.6.3 2.5-.4.4-1 .8-1.3 1.2-.6.8-.2 1.5.3 2.2.6.7.8 1.4.1 2.2-.2.2-.5.4-.7.6-.3.4-.4.8-.4 1.2.1 1.3 1.2 2.2 1.6 3.4.3 1.3-.6 1.6-1.3 2.4-.4.5-.6 1-.7 1.7-.1.6 0 1.2.2 1.8l.3.6c.3.8.1 1.3-.5 1.5-.2.2-.3.2-.6.5-1 1.5 1.4 4.5-.6 5.2zM43 80.5c.1 0 .1-.1.1-.2-.3-1-.6-2.1-.4-3.1.3-1.2 1.4-2.5 2.8-1.8.1 0 .2 0 .2-.1-.3-.9-.5-1.8-.5-2.7 0-.5.1-1.1.4-1.5.5-.8 1.2-.7 1.9-1.1.5-.3.6-.7.7-1.2.2-1 .2-2 .6-3 .5-1.1 1.4-1.8 2.2-2.7.4-.4.6-.9.6-1.5s-.3-1.2-.5-1.8c-.2-1 .2-1.4.9-2.2l.5-.5c.8-1.6-1.3-3.5.6-4.7 1.2-.8 2.4-.7 2.4-2.5 0-1-.3-2 .5-2.9.5-.6 1.3-1 2-1.3 1.1-.5 2.3-1.1 2.8-2.2.4-.9.3-2 .6-2.9.5-1.4 1.8-1.5 3-1.9.5-.2 1-.4 1.3-.8.2-.3.3-.6.3-1v-.8c0-1.1.5-1.5 1.6-1.2 0 0 .1 0 .1-.1-.4-.6-1.2-.3-1.6.2-.3.4-.2.9-.3 1.4-.2 1.6-1.2 1.8-2.5 2.2-1.2.3-2.1.8-2.3 2.1-.2.8-.1 1.7-.5 2.5-.4.9-1.2 1.4-2 1.8-1 .6-2.3 1-3 2-1 1.4.3 3.3-1.2 4.5-.9.7-2.2.5-2.4 2-.1.6.1 1.1.2 1.7.1.5.3 1.1.1 1.5-.2.6-.9.9-1.3 1.3-.7.9 0 2 .2 2.9.4 1.5-.7 2-1.6 2.9-.5.6-.9 1.2-1.2 1.9-.3.7-.4 1.4-.5 2.2-.1.9-.2 1.4-1.1 1.8-.3.2-.7.2-1 .4-.9.7-1 1.9-.9 3 0 .2.5 1.6.4 1.7-.1 0-1-.1-1.2 0-1.2.4-1.7 1.6-1.7 2.8 0 .6.6 2 .3 2.4-.1.1-1.2.4-1.4.6-.9.6-1.5 1.7-1.6 2.8-.1.6 0 1.2.2 1.7.3.8 0 .5-.7.9-1.2.6-1.8 2-1.5 3.4.3 1.4 1.2 2.6 0 3.8-.5.5-1.1.7-1.3 1.5-.3.9.1 1.8 0 2.7-.1 1.5-.7 2.7-1.7 3.8-.1.1 0 .2.1.1.9-.9 1.6-2 1.8-3.3.1-.7 0-1.3 0-1.9-.1-.7-.1-1.4.5-2 .2-.3.5-.4.8-.6.8-.8.9-1.5.6-2.5-.2-.7-.6-1.4-.6-2.1-.1-1.5 1.1-2.7 2.5-2.8.1 0 .2-.1.1-.2-1.3-2.1.1-5.2 2.6-5.4zM92.8 32c-1.2.4-2-1.5-3 0-.6.9-.5 1.9-1.8 2.3-.7.2-1.5.2-2.2.5-.4.2-.6.5-.9.8-.1.1-.2.3-.2.4-.6.3-1.1.2-1.6-.2-.3-.1-.3-.2-.6-.2-1-.2-2 .4-2.4 1.3 0 .1.1.1.2.1.7-1.2 1.8-1.3 3-.7.4.2.6.4 1.1.3.3-.1.5-.5.7-.7.6-.9 1.3-.9 2.3-1.1.9-.2 1.7-.3 2.2-1.2.2-.3.2-.7.4-1 .1-.7.7-.9 1.6-.6.1.1.3.2.4.2.4.1.5.3 1 .1 0-.1-.1-.3-.2-.3zm16-.8c-.4-.6-.3-1.2-1-1.6-.5-.3-1.1-.3-1.6-.1-.4.1-.8.3-1.1.5-.1.1-.7.6-.8.6 0 0-.4-.9-.6-1-.5-.4-1.1-.6-1.7-.6-1.6.1-2.5 1.7-3.2 2.9 0 .1.1.2.1.1.5-.9 1-1.9 2-2.5 1.2-.6 3.1-.2 3.1 1.4 0 .1.1.1.2.1.7-.6 1.6-1.4 2.6-1.3.8 0 1.2.7 1.6 1.4.1.1.1.3.2.4.6.8 1.7.2 2.5.6.1 0 .2-.1.1-.1-.7-.6-1.9 0-2.4-.8zM136.2 49c.3 1.3 1.1 1.6 2.3 1.6.6 0 1.2 0 1.7.2.7.3 1.1 1 1.4 1.7.6 1.1 1.1 2.3 1.7 3.4.1.1.2 0 .2-.1-.4-.9-.8-1.7-1.2-2.6-.4-.8-.7-1.8-1.4-2.3-1.5-1.2-4 .5-4.5-2.2-.2-1.3-.5-2.1-1.9-2.3-1-.1-2.1.1-2.8-.8-.6-.7-.2-2-.5-2.8-1.1-2.3-4.2-.1-6-.7-1.7-.5-.8-3-2.3-3.8-1.2-.6-2.5-.1-3.7.2-2.6.7-2.2-2.6-4.1-3.4-1.2-.4-2.5-.1-3.2.9-.1.1 0 .2.1.1 1.4-1.8 3.7-1 4.5.8.4.9.8 2 1.9 2 1.7.1 3.7-1.7 5 .2.7 1 .2 2.5 1.5 3.1 2.4 1 5.9-2.3 6.3 2 .1.9.2 1.8 1.2 2.2.6.2 1.2.2 1.7.2.8.1 1.4.3 1.8 1.1.3.3.2.8.3 1.3zm5.1 75.7c0-.7.2-1.3.3-2 0-.4 0-.6-.2-1-.6-1-1.2-.6-1-2.4.1-.6.4-1.1.3-1.8 0-.6-.2-1.2-.4-1.8-.5-1.6-1.3-3.8.4-4.9.1-.1.1-.2 0-.2-2.8-.6 0-4.6.1-6.1 0-.7-.2-1.1-.6-1.6-.5-.6-.5-.5-.5-1.4 0-.7 0-.7.3-1.2.2-.4.4-.8.5-1.2.2-.8-.1-1.5-.4-2.2-.5-1.5-.4-2.5.3-3.9.5-1.1.9-2.3-.1-3.2-.5-.4-1.3-.9-1.2-1.8 0-.4.5-1 .7-1.4.3-.6.5-1.2.3-1.9s-.8-1.2-1.1-1.9c-.7-1.3 0-2.2.7-3.3.7-1 .9-1.9-.2-2.7-.9-.8-.9-1.4-.4-2.5.1-.4.3-.7.4-1.1.1-.7-.1-1.3-.5-1.9-.3-.4-1.9-1.5-1.9-1.9 0-.1.5-.5.7-.7.2-.3.4-.7.5-1.1.4-1.7-.8-3.1-2.4-3.5-.1 0-.1.1 0 .1 2.5.6 3.1 3.7.8 5.1-.1 0-.1.2 0 .2 1.5 1 3 2.2 2.3 4.2-.3.8-.9 1.6-.4 2.4.1.2.3.4.5.5.9.8 1 1.4.4 2.5-.4.7-1 1.4-1.1 2.2-.1.8.3 1.4.7 2 .3.5.7 1 .8 1.6.1.9-.4 1.6-.7 2.3-.2.5-.4 1-.2 1.5.1.3.3.5.5.7.3.2.7.4 1 .7.5.6.4 1.1.2 1.7-.3 1-.9 1.8-1 2.8-.1 1 .4 1.9.6 2.9.5 1.6-.7 2.2-.9 3.6-.2 1 .6 1.4 1 2.1 1.2 2.1-1.9 4.3-.7 6.6.1.2.8.8.8.8s-.5.6-.6.8c-.2.3-.2.7-.3 1.1-.1 1.3.4 2.4.7 3.6.2.6.2 1.1.2 1.8-.1.6-.3 1.1-.4 1.7 0 .3-.1.6 0 .9.2.5.7.8 1 1.2.5.7.2 1.4 0 2.2-.2 1.2.2 2.3.9 3.2.1.1.4 0 .3-.1-.6-.7-.9-1.5-1-2.3zm8.5-6.6c-.6-1.3-1.2-2.1-.8-3.6.4-1.3 1.2-2.7.7-4.1-.2-.6-.6-.8-1.1-1.1-1.2-.7-1.2-1.5-.7-2.7.4-.8 1-1.7.9-2.6-.2-1.4-2-1.2-2.5-2.3-.8-2 1.9-4.4.4-6.3-.3-.4-.8-.6-1.3-.8-1.7-.8-1.3-2.2-.6-3.6.4-.9 1-2.2.3-3.2-.3-.4-.7-.5-1.1-.6-1.7-.6-1.3-2.2-.5-3.4.6-1 1.7-2.1 1.4-3.4-.1-.4-.3-.7-.6-1-.5-.4-.7-.4-1.2-1-.6-.6-.7-.6-.4-1.3.1-.3.3-.7.5-1 .5-.8 1.2-2 .5-2.9-.5-.7-1.6-.5-2-1.2-.5-.9.5-2.2.7-3 .3-1.1-.1-2.1-.9-2.8-.6-.5-1.1-.5-1.8-.7-.5-.1-.4.1-.2-.6.1-.5.3-.9.4-1.4.2-1.2-.2-2.8-1.5-3.3-.3-.1-.6-.1-.8-.1-1.8-.6-1-1.8-.5-2.7.3-.5.7-1.2.4-1.8-.2-.7-1.2-1.1-1.7-.5 0 .1 0 .2.1.1h1.1v1.7c-.1.2-.3.5-.4.7-.2.3-.3.6-.4 1-.1.5-.1 1.1.3 1.5.6.6 1.6.2 2.3.8 1.4 1.3.6 3.4.1 4.8 0 .1.1.2.2.2 1.1-.3 2.3.3 2.9 1.3.6 1 .2 1.9-.2 2.9-.3.8-.6 1.6-.2 2.4.2.3.4.4.7.6.6.4 1.2-.7 1.5 1.1.1.4-.2 1-.3 1.4-.4.8-1.2 1.7-1 2.7.3 1.2 1.9 1.1 2.4 2.2.6 1.3-1.3 3-1.8 4.1-.3.7-.5 1.5-.2 2.2.1.3.3.5.6.7.3.2.4.1.7.3 1.1.4 1.4 1.1 1.1 2.2-.4 1.7-2.4 3.9 0 5.1.7.3 1.4.5 1.7 1.2.2.6.2 1.2 0 1.7-.2.9-.6 1.8-.8 2.8-.1.6-.1 1.3.3 1.8.8 1 2.6.8 2.2 2.5-.2 1.2-1.8 2.9-1 4.2.5.7 1.4.7 1.8 1.4.5.9.2 2.1-.2 3-.5 1.3-.9 2.4-.3 3.7.4.9 1 1.6 1 2.6 0 .8-.3 1.6-.5 2.3-.3 1.1-.5 2.1.2 3.1.1.1.3 0 .2-.1-1-1.6.2-3.3.4-5-.1-1.1-.2-1.7-.5-2.2zm7.6 1.8c-.9-1-.2-1.8-.5-2.9-.3-1.4-2-1.7-1.7-3.4.2-1.2 1-2.2 1.3-3.4.2-.8.1-1.5-.4-2.1-.2-.3-.5-.4-.7-.7-.8-1.1-.4-1.8.1-2.8.3-.6.6-1.1.7-1.8 0-.4 0-.9-.3-1.3-.4-.5-.9-.4-1.4-.7-1.7-1.2.1-3.6.3-5 .1-.8-.1-1.6-.8-2-.6-.4-1.2-.1-1.8-.9-.3-.4-.3-.9-.3-1.4 0-.9.4-1.7.6-2.6.2-.9.4-2-.3-2.8-.3-.4-.7-.6-1.1-.9-1-.8-1-1.7-.7-2.8.3-.9.8-1.9.8-2.9-.1-1.1-1-1.2-1.8-1.7-2.2-1.3.9-4.7-1.1-6.2-.5-.4-1.2-.5-1.7-.8-1.4-.8-.9-2-.7-3.2.1-1.1-.1-1.8-1-2.4-.6-.4-1.4-.6-1.9-1.1-.9-1 .3-2.1.4-3.1.1-1.1-.5-2-1.4-2.5-.1-.1-.2.1-.1.1 1.2.7 1.5 2 1 3.2-.2.5-.6.9-.5 1.5.1.8.8 1.2 1.4 1.5.6.3 1.4.6 1.7 1.3.5.9 0 1.9-.1 2.8-.1.8.1 1.5.8 2 .5.3 1.2.4 1.7.7.9.5 1 1.5.8 2.4-.1.9-.5 1.9-.3 2.8.2 1.1 1 1.1 1.8 1.6 1.4.9.3 2.7 0 3.8-.2.8-.4 1.6.1 2.3.2.3.5.5.8.7.4.3.9.5 1.2 1.1.4.7.2 1.6 0 2.3-.3 1.1-.8 2.1-.6 3.3.1.4.2.8.5 1.1.4.4.9.4 1.4.6 3 1.6-1.6 5.2.9 7.2.7.5 1.4-.4 1.6 1.4.1.5-.2 1.1-.4 1.6s-.6 1-.7 1.6c-.4 1.7 1.2 1.8 1.6 3.2.6 2.1-2.5 4.3-1 6.3.2.3.5.5.7.7.4.5.7 1.1.7 1.7 0 .6-.2 1.2.1 1.8.1.2.3.3.4.5.7.9.6 1.5.5 2.5-.1 1-.3 2-.4 3 0 .1.2.2.2 0 .2-1 .3-1.9.4-2.9.1-.5.3-1.2.2-1.7-.3-.1-.6-.3-1-.6zm15.4-10c-.2-.7-.5-1.3-.5-2 0-.8.4-1.4.5-2.2 0-.6-.1-.8-.5-1.1.1.1.2.5.1 1.4 0 .3-.2.6-.3.9-.6 2.1 2.3 5.8-.2 7.2-.2.1 0 .3.1.2 1.7-.9 1.2-2.9.8-4.4zm-.6-5.3-.1-.1c-.5-.5-.9.6-1.1-1 0-.2.1-.6.2-.8.1-.3.2-.6.2-1 0-.7-.3-1.1-.8-1.6-.7-.5-1.3-1-1-2 .1-.5.4-.9.7-1.4.3-.5.6-1.1.5-1.8-.1-.7-.6-1-1.2-1.3-.7-.4-1.3-.5-1.6-1.4-.2-.6-.1-1.4-.1-2 0-.8-.1-1.4-.7-2-.7-.7-1.2-1.2-1-2.3.1-.5.2-1 .1-1.5-.2-.8-1-1.1-1.3-1.8-.6-1 .1-2.3.2-3.3.1-.7-.1-1.3-.6-1.8s-1.3-.8-1.5-1.7c-.2-.7.1-1.4.3-2 .2-.7.3-1.4-.2-2-.3-.3-.7-.4-1-.6-.9-.5-1.3-1.1-1.7-2.1-.3-.8-.7-1.6-1.4-2.1-.2-.2-.8-.2-1-.4-.5-.4-.3-2.2-.3-2.7 0-.1-.1-.1-.1-.1-1.4.1-2.5-.9-2.8-2.2-.3-1 0-1.8 0-2.8 0-.8-.2-1.4-1.1-1.5-1.2-.2-3.2.9-3.7-1-.2-1 .2-2.3-.7-3.2-1-1-2.8-.4-3.2-2.1-.2-1 .1-2.1-.4-3.1-.3-.7-.9-.9-1.6-.9-.3 0-.6.1-.9.2-1.1.1-1.6-.5-1.9-1.3-.3-1-.5-2-.8-3l-.1-.1c-2 0-3.6-1.6-3.6-3.7 0-.1-.1-.2-.2-.1-.7.3-1.5.7-2.2.6-.5 0-.8-.1-1.1-.5-.6-.3-.8-.8-.7-1.5-.1-.4-.2-.7-.6-.9-1.5-1-3.1 1.2-4.6 0-.9-.7-1.2-2-2.4-2.3-.9-.2-1.8.4-2.7.2-1.4-.3-2.3-1.6-2.4-2.9 0-.1-.1-.1-.1-.1-.5.2-1.1.4-1.6.5-.7.1-.4.2-.7-.3-.2-.6-.3-1.1-.8-1.5-1.1-.9-2.6-.6-3.5.4-.1.1 0 .2.1.1 1.5-1.7 4.2-.5 3.9 1.7 0 .1.1.1.1.1.4-.1 1.6-.8 2-.6.4.1.3.5.5.9.3.9 1.1 1.7 2 2 1.2.4 2.7-.5 3.7.2.8.6 1.1 1.6 1.9 2.1.8.5 1.6.2 2.5-.1 1.2-.4 1.7-.5 2.5 1.1.2.5.2.9.7 1.3.5.4 1.2.5 1.8.4.2 0 1.4-.5 1.6-.5.2.1.3.9.4 1.2.3.9 1 1.7 1.9 2.1.3.2.7.2 1 .4.4.2.3-.2.7.4.3.4.3 1.2.4 1.6.2.7.3 1.9 1 2.3 1.1.7 2.6-.9 3.5.4.9 1.4-.3 3.5 1.2 4.5.4.2.8.3 1.2.5 1.1.3 1.6.8 1.8 2 .1.8-.1 1.8.5 2.4.5.6 1.4.5 2.1.4 1.2-.2 2-.5 2.2 1.5 0 .6-.1 1.1 0 1.7.1 1.1.6 2.1 1.5 2.7.3.2 1.1.3 1.4.5.6.5.3 2.1.3 2.7 0 .1.1.1.1.1 2.3-.2 2.2 3.2 3.7 4.2.6.4 1.3.5 1.6 1.2.2.5 0 1.2-.2 1.6-.2.7-.4 1.4-.2 2 .2.7.8 1 1.2 1.4 1.2 1.1.7 2.2.5 3.6-.1.6-.1 1.1.1 1.6.1.2.3.4.5.6.7.7 1 1.4.8 2.4-.1.6-.2 1.1 0 1.7.1.3.4.5.6.7.7.6.9 1.2 1 2.1 0 1.6-.1 2.6 1.5 3.4.6.3 1.2.5 1.4 1.2.2.6-.2 1.2-.4 1.7-.3.6-.7 1.2-.8 1.9 0 .4.1.8.3 1.1.2.2.4.4.7.6.8.7 1 1.2.8 2.2-.1.5-.4 1.1-.1 1.6.1.2.3.3.5.4.5.8.8.5.9.6zm-5.3 12.9c-.5-.4-1.2-1-1.2-1.8 0-.4.4-.9.5-1.3.4-1.1.2-2-.4-3-.4-.6-.8-1.1-1.1-1.7-.5-1 .2-1.7.5-2.7.1-.4.1-.8-.1-1.2l-.6-.6c-.6-.7-.7-1.4-.5-2.2.3-1.1 1.1-2.4.5-3.5-.2-.4-.5-.6-.9-.8-.6-.3-1.2-.3-1.5-1.1-.2-.6.1-1.4.3-2 .5-1.1 1.3-2.3.5-3.5-.9-1.4-2.9-1.4-2.7-3.5.1-1 .8-2.3.1-3.2-.6-.8-1.7-.7-2.6-.7-.5 0-.8 0-1.2-.4-.3-.4-.1-.5 0-1 .2-.6.4-1.3.3-2-.1-1-.8-1.5-1.7-1.7-.7-.2-.9-.1-1.4-.7-.5-.6-.4-.8-.2-1.5.2-.5.5-1.1.5-1.7 0-1.5-1.7-1.2-2.3-2.3-.7-1.3 1.1-2.5.8-3.8-.4-1.5-2.7-.8-2.7-2.7 0-1 .7-2.3.1-3.2-.2-.3-.5-.3-.9-.5-.8-.4.3.7-1-.8-.7-.8-.7-.6-.4-1.4.1-.2.2-.5.2-.7.1-.7-.2-1.6-1-1.5-.1 0-.1.1 0 .1 1.8-.2-.1 3.1.5 4 .2.4.6.3 1 .5.7.2 1.5.2 1.6 1.1 0 .3-.1.7-.1 1-.1.8-.5 1.9 0 2.6.3.5.8.5 1.3.7 1.6.7 1.1 1.6.6 2.8-.3.8-.7 1.6 0 2.3.5.6 1.5.6 1.9 1.3.4.8-.2 1.7-.4 2.5s-.2 1.5.6 2c.9.5 2.3.1 2.7 1.4.3 1-.2 2.2-.7 3v.2c.6.9 1.6.7 2.5.7 1.5 0 2 .9 1.7 2.3-.1.6-.3 1.2-.3 1.9.1 1.3 1.3 1.7 2.2 2.4 2 1.6-.4 3.6-.4 5.5 0 .4.1.8.3 1 .6.8 1.7.5 2.1 1.5.6 1.7-1.1 3.1-.5 4.8.1.2.2.4.3.5.6.7.7.4.8 1.5.1.9 0 .7-.3 1.5-.1.3-.2.6-.2.9.1 1.2 1.1 2.1 1.6 3.1.6 1.2 0 2.1-.3 3.3-.2.5-.2 1 0 1.5.4.7 1.4 1 1.9 1.7.9 1.1 1.2 2.5 1 3.9 0 .2.2.3.3.1.2-1.3 0-2.6-.7-3.7-.1-.4-.5-.8-.9-1.2z" fill="#ffffff" stroke-width="none" opacity="1"></path></g><g id="svga-group-glasses-single-move" transform="matrix(1,0,0,1,0,0)"><g id="svga-group-glasses-single"></g></g></g></g></g><rect id="svga-credit-rect" width="200" height="15" x="0" y="185" fill="#ecf0f1" opacity="0.5" style="display: none;"></rect><text id="svga-credit-text" font-family="Avenir Next, Roboto, Helvetica, Arial, sans-serif" font-size="10px" text-anchor="start" font-weight="400" size="10px" anchor="start" weight="400" fill="#333333" x="33.43305206298828" y="182.5377516746521" style="display: none;"><tspan id="SvgjsTspan3371" dy="13" x="33.43305206298828">Created on AvatarMaker.com</tspan></text></g><defs id="SvgjsDefs3323"><linearGradient id="SvgjsLinearGradient7806" x1="81.4811" y1="77.4731" x2="81.4811" y2="101.8875" gradientUnits="userSpaceOnUse" class="svga-on-canvas-glasses-gradient-single-0-null"><stop id="SvgjsStop7807" stop-opacity="1" stop-color="#ffffff" offset="0.0708" ></stop><stop id="SvgjsStop7808" stop-opacity="0" stop-color="#ffffff" offset="1" ></stop></linearGradient><linearGradient id="SvgjsLinearGradient7810" x1="38.4811" y1="77.4731" x2="38.4811" y2="101.8875" gradientTransform="matrix(-1 0 0 1 156.6823 0)" gradientUnits="userSpaceOnUse" class="svga-on-canvas-glasses-gradient-single-1-null"><stop id="SvgjsStop7811" stop-opacity="1" stop-color="#ffffff" offset="0.0708" ></stop><stop id="SvgjsStop7812" stop-opacity="0" stop-color="#ffffff" offset="1" ></stop></linearGradient><linearGradient id="SvgjsLinearGradient7865" x1="81.258" y1="79.0018" x2="81.258" y2="98.9856" gradientUnits="userSpaceOnUse" class="svga-on-canvas-glasses-gradient-single-0-null"><stop id="SvgjsStop7866" stop-opacity="1" stop-color="#ffffff" offset="0.0708" ></stop><stop id="SvgjsStop7867" stop-opacity="0" stop-color="#ffffff" offset="1" ></stop></linearGradient><linearGradient id="SvgjsLinearGradient7869" x1="37.2155" y1="79.0018" x2="37.2155" y2="98.9856" gradientTransform="matrix(-1 0 0 1 155.4348 0)" gradientUnits="userSpaceOnUse" class="svga-on-canvas-glasses-gradient-single-1-null"><stop id="SvgjsStop7870" stop-opacity="1" stop-color="#ffffff" offset="0.0708" ></stop><stop id="SvgjsStop7871" stop-opacity="0" stop-color="#ffffff" offset="1" ></stop></linearGradient><linearGradient id="SvgjsLinearGradient7927" x1="81.258" y1="79.0018" x2="81.258" y2="98.9856" gradientUnits="userSpaceOnUse" class="svga-on-canvas-glasses-gradient-single-0-null"><stop id="SvgjsStop7928" stop-opacity="1" stop-color="#ffffff" offset="0.0708" ></stop><stop id="SvgjsStop7929" stop-opacity="0" stop-color="#ffffff" offset="1" ></stop></linearGradient><linearGradient id="SvgjsLinearGradient7931" x1="37.2155" y1="79.0018" x2="37.2155" y2="98.9856" gradientTransform="matrix(-1 0 0 1 155.4348 0)" gradientUnits="userSpaceOnUse" class="svga-on-canvas-glasses-gradient-single-1-null"><stop id="SvgjsStop7932" stop-opacity="1" stop-color="#ffffff" offset="0.0708" ></stop><stop id="SvgjsStop7933" stop-opacity="0" stop-color="#ffffff" offset="1" ></stop></linearGradient><linearGradient id="SvgjsLinearGradient7989" x1="82.5167" y1="78.7186" x2="82.5167" y2="100.0816" gradientUnits="userSpaceOnUse" class="svga-on-canvas-glasses-gradient-single-0-null"><stop id="SvgjsStop7990" stop-opacity="1" stop-color="#ffffff" offset="0.0708" ></stop><stop id="SvgjsStop7991" stop-opacity="0" stop-color="#ffffff" offset="1" ></stop></linearGradient><linearGradient id="SvgjsLinearGradient7993" x1="41.5167" y1="78.7186" x2="41.5167" y2="100.0816" gradientTransform="matrix(-1 0 0 1 158.5026 0)" gradientUnits="userSpaceOnUse" class="svga-on-canvas-glasses-gradient-single-1-null"><stop id="SvgjsStop7994" stop-opacity="1" stop-color="#ffffff" offset="0.0708" ></stop><stop id="SvgjsStop7995" stop-opacity="0" stop-color="#ffffff" offset="1" ></stop></linearGradient><linearGradient id="SvgjsLinearGradient8036" x1="81.4438" y1="79.8911" x2="81.4438" y2="97.9183" gradientUnits="userSpaceOnUse" class="svga-on-canvas-glasses-gradient-single-0-null"><stop id="SvgjsStop8037" stop-opacity="1" stop-color="#ffffff" offset="0.0708" ></stop><stop id="SvgjsStop8038" stop-opacity="0" stop-color="#ffffff" offset="1" ></stop></linearGradient><linearGradient id="SvgjsLinearGradient8040" x1="38.2938" y1="79.8911" x2="38.2938" y2="97.9183" gradientTransform="matrix(-1 0 0 1 156.7 0)" gradientUnits="userSpaceOnUse" class="svga-on-canvas-glasses-gradient-single-1-null"><stop id="SvgjsStop8041" stop-opacity="1" stop-color="#ffffff" offset="0.0708" ></stop><stop id="SvgjsStop8042" stop-opacity="0" stop-color="#ffffff" offset="1" ></stop></linearGradient><linearGradient id="SvgjsLinearGradient8134" x1="82.5167" y1="78.7186" x2="82.5167" y2="100.0816" gradientUnits="userSpaceOnUse" class="svga-on-canvas-glasses-gradient-single-0-null"><stop id="SvgjsStop8135" stop-opacity="1" stop-color="#ffffff" offset="0.0708" ></stop><stop id="SvgjsStop8136" stop-opacity="0" stop-color="#ffffff" offset="1" ></stop></linearGradient><linearGradient id="SvgjsLinearGradient8138" x1="41.5167" y1="78.7186" x2="41.5167" y2="100.0816" gradientTransform="matrix(-1 0 0 1 158.5026 0)" gradientUnits="userSpaceOnUse" class="svga-on-canvas-glasses-gradient-single-1-null"><stop id="SvgjsStop8139" stop-opacity="1" stop-color="#ffffff" offset="0.0708" ></stop><stop id="SvgjsStop8140" stop-opacity="0" stop-color="#ffffff" offset="1" ></stop></linearGradient><linearGradient id="SvgjsLinearGradient9789" x1="81.2924" y1="77.5931" x2="81.2924" y2="103.7231" gradientUnits="userSpaceOnUse" class="svga-on-canvas-glasses-gradient-single-0-null"><stop id="SvgjsStop9790" stop-opacity="1" stop-color="#000000" offset="0.004166667" ></stop><stop id="SvgjsStop9791" stop-opacity="0.9015" stop-color="#050505" offset="0.1023" ></stop><stop id="SvgjsStop9792" stop-opacity="0.7775" stop-color="#151515" offset="0.2257" ></stop><stop id="SvgjsStop9793" stop-opacity="0.64" stop-color="#2f2f2f" offset="0.3627" ></stop><stop id="SvgjsStop9794" stop-opacity="0.4926" stop-color="#535353" offset="0.5094" ></stop><stop id="SvgjsStop9795" stop-opacity="0.3374" stop-color="#818181" offset="0.664" ></stop><stop id="SvgjsStop9796" stop-opacity="0.1755" stop-color="#b9b9b9" offset="0.8253" ></stop><stop id="SvgjsStop9797" stop-opacity="0.011" stop-color="#fafafa" offset="0.989" ></stop><stop id="SvgjsStop9798" stop-opacity="0" stop-color="#ffffff" offset="1" ></stop></linearGradient><linearGradient id="SvgjsLinearGradient9800" x1="-18.0721" y1="77.5931" x2="-18.0721" y2="103.7231" gradientTransform="matrix(-1 0 0 1 100 0)" gradientUnits="userSpaceOnUse" class="svga-on-canvas-glasses-gradient-single-1-null"><stop id="SvgjsStop9801" stop-opacity="1" stop-color="#000000" offset="0.004166667" ></stop><stop id="SvgjsStop9802" stop-opacity="0.9015" stop-color="#050505" offset="0.1023" ></stop><stop id="SvgjsStop9803" stop-opacity="0.7775" stop-color="#151515" offset="0.2257" ></stop><stop id="SvgjsStop9804" stop-opacity="0.64" stop-color="#2f2f2f" offset="0.3627" ></stop><stop id="SvgjsStop9805" stop-opacity="0.4926" stop-color="#535353" offset="0.5094" ></stop><stop id="SvgjsStop9806" stop-opacity="0.3374" stop-color="#818181" offset="0.664" ></stop><stop id="SvgjsStop9807" stop-opacity="0.1755" stop-color="#b9b9b9" offset="0.8253" ></stop><stop id="SvgjsStop9808" stop-opacity="0.011" stop-color="#fafafa" offset="0.989" ></stop><stop id="SvgjsStop9809" stop-opacity="0" stop-color="#ffffff" offset="1" ></stop></linearGradient><linearGradient id="SvgjsLinearGradient9884" x1="82.0363" y1="123.8455" x2="82.0363" y2="100.9533" gradientTransform="matrix(1 0 0 -1 0 202)" gradientUnits="userSpaceOnUse" class="svga-on-canvas-glasses-gradient-single-0-null"><stop id="SvgjsStop9885" stop-opacity="1" stop-color="#000000" offset="0" ></stop><stop id="SvgjsStop9886" stop-opacity="0" stop-color="#000000" offset="1" ></stop></linearGradient><linearGradient id="SvgjsLinearGradient9888" x1="117.8737" y1="123.8455" x2="117.8737" y2="100.9533" gradientTransform="matrix(1 0 0 -1 0 202)" gradientUnits="userSpaceOnUse" class="svga-on-canvas-glasses-gradient-single-1-null"><stop id="SvgjsStop9889" stop-opacity="1" stop-color="#000000" offset="0" ></stop><stop id="SvgjsStop9890" stop-opacity="0" stop-color="#000000" offset="1" ></stop></linearGradient><linearGradient id="SvgjsLinearGradient9958" x1="80.5815" y1="78.6567" x2="80.5815" y2="101.9246" gradientUnits="userSpaceOnUse" class="svga-on-canvas-glasses-gradient-single-0-null"><stop id="SvgjsStop9959" stop-opacity="1" stop-color="#000000" offset="0" ></stop><stop id="SvgjsStop9960" stop-opacity="0" stop-color="#000000" offset="1" ></stop></linearGradient><linearGradient id="SvgjsLinearGradient9962" x1="34.0012" y1="78.6567" x2="34.0012" y2="101.9246" gradientTransform="matrix(-1 0 0 1 152.872 0)" gradientUnits="userSpaceOnUse" class="svga-on-canvas-glasses-gradient-single-1-null"><stop id="SvgjsStop9963" stop-opacity="1" stop-color="#000000" offset="0" ></stop><stop id="SvgjsStop9964" stop-opacity="0" stop-color="#000000" offset="1" ></stop></linearGradient><linearGradient id="SvgjsLinearGradient10046" x1="81.258" y1="79.0018" x2="81.258" y2="98.9856" gradientUnits="userSpaceOnUse" class="svga-on-canvas-glasses-gradient-single-0-null"><stop id="SvgjsStop10047" stop-opacity="1" stop-color="#ffffff" offset="0.0708" ></stop><stop id="SvgjsStop10048" stop-opacity="0" stop-color="#ffffff" offset="1" ></stop></linearGradient><linearGradient id="SvgjsLinearGradient10050" x1="37.2155" y1="79.0018" x2="37.2155" y2="98.9856" gradientTransform="matrix(-1 0 0 1 155.4348 0)" gradientUnits="userSpaceOnUse" class="svga-on-canvas-glasses-gradient-single-1-null"><stop id="SvgjsStop10051" stop-opacity="1" stop-color="#ffffff" offset="0.0708" ></stop><stop id="SvgjsStop10052" stop-opacity="0" stop-color="#ffffff" offset="1" ></stop></linearGradient><linearGradient id="SvgjsLinearGradient10108" x1="82.5167" y1="78.7186" x2="82.5167" y2="100.0816" gradientUnits="userSpaceOnUse" class="svga-on-canvas-glasses-gradient-single-0-null"><stop id="SvgjsStop10109" stop-opacity="1" stop-color="#ffffff" offset="0.0708" ></stop><stop id="SvgjsStop10110" stop-opacity="0" stop-color="#ffffff" offset="1" ></stop></linearGradient><linearGradient id="SvgjsLinearGradient10112" x1="41.5167" y1="78.7186" x2="41.5167" y2="100.0816" gradientTransform="matrix(-1 0 0 1 158.5026 0)" gradientUnits="userSpaceOnUse" class="svga-on-canvas-glasses-gradient-single-1-null"><stop id="SvgjsStop10113" stop-opacity="1" stop-color="#ffffff" offset="0.0708" ></stop><stop id="SvgjsStop10114" stop-opacity="0" stop-color="#ffffff" offset="1" ></stop></linearGradient><linearGradient id="SvgjsLinearGradient10155" x1="79.6018" y1="74.98" x2="79.6018" y2="101.8491" gradientUnits="userSpaceOnUse" class="svga-on-canvas-glasses-gradient-single-0-null"><stop id="SvgjsStop10156" stop-opacity="1" stop-color="#000000" offset="0" ></stop><stop id="SvgjsStop10157" stop-opacity="0" stop-color="#000000" offset="1" ></stop></linearGradient><linearGradient id="SvgjsLinearGradient10159" x1="33.8842" y1="74.98" x2="33.8842" y2="101.8491" gradientTransform="matrix(-1 0 0 1 154.0177 0)" gradientUnits="userSpaceOnUse" class="svga-on-canvas-glasses-gradient-single-1-null"><stop id="SvgjsStop10160" stop-opacity="1" stop-color="#000000" offset="0" ></stop><stop id="SvgjsStop10161" stop-opacity="0" stop-color="#000000" offset="1" ></stop></linearGradient><linearGradient id="SvgjsLinearGradient10261" x1="81.4811" y1="77.4731" x2="81.4811" y2="101.8875" gradientUnits="userSpaceOnUse" class="svga-on-canvas-glasses-gradient-single-0-null"><stop id="SvgjsStop10262" stop-opacity="1" stop-color="#ffffff" offset="0.0708" ></stop><stop id="SvgjsStop10263" stop-opacity="0" stop-color="#ffffff" offset="1" ></stop></linearGradient><linearGradient id="SvgjsLinearGradient10265" x1="38.4811" y1="77.4731" x2="38.4811" y2="101.8875" gradientTransform="matrix(-1 0 0 1 156.6823 0)" gradientUnits="userSpaceOnUse" class="svga-on-canvas-glasses-gradient-single-1-null"><stop id="SvgjsStop10266" stop-opacity="1" stop-color="#ffffff" offset="0.0708" ></stop><stop id="SvgjsStop10267" stop-opacity="0" stop-color="#ffffff" offset="1" ></stop></linearGradient><linearGradient id="SvgjsLinearGradient10320" x1="82.0363" y1="123.8455" x2="82.0363" y2="100.9533" gradientTransform="matrix(1 0 0 -1 0 202)" gradientUnits="userSpaceOnUse" class="svga-on-canvas-glasses-gradient-single-0-null"><stop id="SvgjsStop10321" stop-opacity="1" stop-color="#000000" offset="0" ></stop><stop id="SvgjsStop10322" stop-opacity="0" stop-color="#000000" offset="1" ></stop></linearGradient><linearGradient id="SvgjsLinearGradient10324" x1="117.8737" y1="123.8455" x2="117.8737" y2="100.9533" gradientTransform="matrix(1 0 0 -1 0 202)" gradientUnits="userSpaceOnUse" class="svga-on-canvas-glasses-gradient-single-1-null"><stop id="SvgjsStop10325" stop-opacity="1" stop-color="#000000" offset="0" ></stop><stop id="SvgjsStop10326" stop-opacity="0" stop-color="#000000" offset="1" ></stop></linearGradient></defs></svg>